<?xml version="1.0" encoding="UTF-8" standalone="no"?>
<!DOCTYPE svg PUBLIC "-//W3C//DTD SVG 1.1//EN"
 "http://www.w3.org/Graphics/SVG/1.1/DTD/svg11.dtd">
<!-- Generated by graphviz version 2.26.3 (20100126.1600)
 -->
<!-- Title: controllers_diagram Pages: 1 -->
<svg width="716pt" height="743pt"
 viewBox="0.00 0.00 716.00 743.00" xmlns="http://www.w3.org/2000/svg" xmlns:xlink="http://www.w3.org/1999/xlink">
<g id="graph1" class="graph" transform="scale(1 1) rotate(0) translate(4 739)">
<title>controllers_diagram</title>
<polygon fill="white" stroke="white" points="-4,5 -4,-739 713,-739 713,5 -4,5"/>
<!-- _diagram_info -->
<g id="node1" class="node"><title>_diagram_info</title>
<text text-anchor="start" x="94" y="-163.3" font-family="Times Roman,serif" font-size="13.00">Controllers diagram</text>
<text text-anchor="start" x="94" y="-146.3" font-family="Times Roman,serif" font-size="13.00">Date: Aug 08 2012 &#45; 14:31</text>
<text text-anchor="start" x="94" y="-129.3" font-family="Times Roman,serif" font-size="13.00">Migration version: 0</text>
<text text-anchor="start" x="94" y="-112.3" font-family="Times Roman,serif" font-size="13.00">Generated by RailRoady 1.0.8</text>
<text text-anchor="start" x="94" y="-95.3" font-family="Times Roman,serif" font-size="13.00">http://railroady.prestonlee.com</text>
</g>
<!-- IntroductionsController -->
<g id="node2" class="node"><title>IntroductionsController</title>
<polyline fill="none" stroke="black" points="183,-222.5 406,-222.5 "/>
<path fill="none" stroke="black" d="M406,-222.5C412,-222.5 418,-228.5 418,-234.5"/>
<polyline fill="none" stroke="black" points="418,-234.5 418,-348.5 "/>
<path fill="none" stroke="black" d="M418,-348.5C418,-354.5 412,-360.5 406,-360.5"/>
<polyline fill="none" stroke="black" points="406,-360.5 183,-360.5 "/>
<path fill="none" stroke="black" d="M183,-360.5C177,-360.5 171,-354.5 171,-348.5"/>
<polyline fill="none" stroke="black" points="171,-348.5 171,-234.5 "/>
<path fill="none" stroke="black" d="M171,-234.5C171,-228.5 177,-222.5 183,-222.5"/>
<text text-anchor="middle" x="294.5" y="-343.9" font-family="Times Roman,serif" font-size="14.00">IntroductionsController</text>
<polyline fill="none" stroke="black" points="171,-334.5 418,-334.5 "/>
<text text-anchor="start" x="179" y="-317.9" font-family="Times Roman,serif" font-size="14.00">_one_time_conditions_valid_110?</text>
<text text-anchor="start" x="179" y="-299.9" font-family="Times Roman,serif" font-size="14.00">index</text>
<text text-anchor="start" x="179" y="-281.9" font-family="Times Roman,serif" font-size="14.00">show</text>
<polyline fill="none" stroke="black" points="171,-272.5 418,-272.5 "/>
<polyline fill="none" stroke="black" points="171,-248.5 418,-248.5 "/>
<text text-anchor="start" x="179" y="-231.9" font-family="Times Roman,serif" font-size="14.00">_layout</text>
</g>
<!-- TipsCountController -->
<g id="node3" class="node"><title>TipsCountController</title>
<polyline fill="none" stroke="black" points="336,-18.5 467,-18.5 "/>
<path fill="none" stroke="black" d="M467,-18.5C473,-18.5 479,-24.5 479,-30.5"/>
<polyline fill="none" stroke="black" points="479,-30.5 479,-108.5 "/>
<path fill="none" stroke="black" d="M479,-108.5C479,-114.5 473,-120.5 467,-120.5"/>
<polyline fill="none" stroke="black" points="467,-120.5 336,-120.5 "/>
<path fill="none" stroke="black" d="M336,-120.5C330,-120.5 324,-114.5 324,-108.5"/>
<polyline fill="none" stroke="black" points="324,-108.5 324,-30.5 "/>
<path fill="none" stroke="black" d="M324,-30.5C324,-24.5 330,-18.5 336,-18.5"/>
<text text-anchor="middle" x="401.5" y="-103.9" font-family="Times Roman,serif" font-size="14.00">TipsCountController</text>
<polyline fill="none" stroke="black" points="324,-94.5 479,-94.5 "/>
<text text-anchor="start" x="332" y="-77.9" font-family="Times Roman,serif" font-size="14.00">create</text>
<polyline fill="none" stroke="black" points="324,-68.5 479,-68.5 "/>
<polyline fill="none" stroke="black" points="324,-44.5 479,-44.5 "/>
<text text-anchor="start" x="332" y="-27.9" font-family="Times Roman,serif" font-size="14.00">_layout</text>
</g>
<!-- HomeController -->
<g id="node4" class="node"><title>HomeController</title>
<polyline fill="none" stroke="black" points="404,-545.5 505,-545.5 "/>
<path fill="none" stroke="black" d="M505,-545.5C511,-545.5 517,-551.5 517,-557.5"/>
<polyline fill="none" stroke="black" points="517,-557.5 517,-635.5 "/>
<path fill="none" stroke="black" d="M517,-635.5C517,-641.5 511,-647.5 505,-647.5"/>
<polyline fill="none" stroke="black" points="505,-647.5 404,-647.5 "/>
<path fill="none" stroke="black" d="M404,-647.5C398,-647.5 392,-641.5 392,-635.5"/>
<polyline fill="none" stroke="black" points="392,-635.5 392,-557.5 "/>
<path fill="none" stroke="black" d="M392,-557.5C392,-551.5 398,-545.5 404,-545.5"/>
<text text-anchor="middle" x="454.5" y="-630.9" font-family="Times Roman,serif" font-size="14.00">HomeController</text>
<polyline fill="none" stroke="black" points="392,-621.5 517,-621.5 "/>
<text text-anchor="start" x="400" y="-604.9" font-family="Times Roman,serif" font-size="14.00">index</text>
<polyline fill="none" stroke="black" points="392,-595.5 517,-595.5 "/>
<polyline fill="none" stroke="black" points="392,-571.5 517,-571.5 "/>
<text text-anchor="start" x="400" y="-554.9" font-family="Times Roman,serif" font-size="14.00">_layout</text>
</g>
<!-- ApplicationController -->
<g id="node5" class="node"><title>ApplicationController</title>
<polyline fill="none" stroke="black" points="472,-154.5 695,-154.5 "/>
<path fill="none" stroke="black" d="M695,-154.5C701,-154.5 707,-160.5 707,-166.5"/>
<polyline fill="none" stroke="black" points="707,-166.5 707,-244.5 "/>
<path fill="none" stroke="black" d="M707,-244.5C707,-250.5 701,-256.5 695,-256.5"/>
<polyline fill="none" stroke="black" points="695,-256.5 472,-256.5 "/>
<path fill="none" stroke="black" d="M472,-256.5C466,-256.5 460,-250.5 460,-244.5"/>
<polyline fill="none" stroke="black" points="460,-244.5 460,-166.5 "/>
<path fill="none" stroke="black" d="M460,-166.5C460,-160.5 466,-154.5 472,-154.5"/>
<text text-anchor="middle" x="583.5" y="-239.9" font-family="Times Roman,serif" font-size="14.00">ApplicationController</text>
<polyline fill="none" stroke="black" points="460,-230.5 707,-230.5 "/>
<text text-anchor="start" x="468" y="-213.9" font-family="Times Roman,serif" font-size="14.00">_one_time_conditions_valid_108?</text>
<polyline fill="none" stroke="black" points="460,-204.5 707,-204.5 "/>
<polyline fill="none" stroke="black" points="460,-180.5 707,-180.5 "/>
<text text-anchor="start" x="468" y="-163.9" font-family="Times Roman,serif" font-size="14.00">_layout</text>
</g>
<!-- AnswersController -->
<g id="node6" class="node"><title>AnswersController</title>
<polyline fill="none" stroke="black" points="404,-392.5 627,-392.5 "/>
<path fill="none" stroke="black" d="M627,-392.5C633,-392.5 639,-398.5 639,-404.5"/>
<polyline fill="none" stroke="black" points="639,-404.5 639,-500.5 "/>
<path fill="none" stroke="black" d="M639,-500.5C639,-506.5 633,-512.5 627,-512.5"/>
<polyline fill="none" stroke="black" points="627,-512.5 404,-512.5 "/>
<path fill="none" stroke="black" d="M404,-512.5C398,-512.5 392,-506.5 392,-500.5"/>
<polyline fill="none" stroke="black" points="392,-500.5 392,-404.5 "/>
<path fill="none" stroke="black" d="M392,-404.5C392,-398.5 398,-392.5 404,-392.5"/>
<text text-anchor="middle" x="515.5" y="-495.9" font-family="Times Roman,serif" font-size="14.00">AnswersController</text>
<polyline fill="none" stroke="black" points="392,-486.5 639,-486.5 "/>
<text text-anchor="start" x="400" y="-469.9" font-family="Times Roman,serif" font-size="14.00">_one_time_conditions_valid_114?</text>
<text text-anchor="start" x="400" y="-451.9" font-family="Times Roman,serif" font-size="14.00">create</text>
<polyline fill="none" stroke="black" points="392,-442.5 639,-442.5 "/>
<polyline fill="none" stroke="black" points="392,-418.5 639,-418.5 "/>
<text text-anchor="start" x="400" y="-401.9" font-family="Times Roman,serif" font-size="14.00">_layout</text>
</g>
<!-- QuestionsController -->
<g id="node7" class="node"><title>QuestionsController</title>
<polyline fill="none" stroke="black" points="557,-545.5 688,-545.5 "/>
<path fill="none" stroke="black" d="M688,-545.5C694,-545.5 700,-551.5 700,-557.5"/>
<polyline fill="none" stroke="black" points="700,-557.5 700,-653.5 "/>
<path fill="none" stroke="black" d="M700,-653.5C700,-659.5 694,-665.5 688,-665.5"/>
<polyline fill="none" stroke="black" points="688,-665.5 557,-665.5 "/>
<path fill="none" stroke="black" d="M557,-665.5C551,-665.5 545,-659.5 545,-653.5"/>
<polyline fill="none" stroke="black" points="545,-653.5 545,-557.5 "/>
<path fill="none" stroke="black" d="M545,-557.5C545,-551.5 551,-545.5 557,-545.5"/>
<text text-anchor="middle" x="622.5" y="-648.9" font-family="Times Roman,serif" font-size="14.00">QuestionsController</text>
<polyline fill="none" stroke="black" points="545,-639.5 700,-639.5 "/>
<text text-anchor="start" x="553" y="-622.9" font-family="Times Roman,serif" font-size="14.00">index</text>
<text text-anchor="start" x="553" y="-604.9" font-family="Times Roman,serif" font-size="14.00">show</text>
<polyline fill="none" stroke="black" points="545,-595.5 700,-595.5 "/>
<polyline fill="none" stroke="black" points="545,-571.5 700,-571.5 "/>
<text text-anchor="start" x="553" y="-554.9" font-family="Times Roman,serif" font-size="14.00">_layout</text>
</g>
<!-- UsersController -->
<g id="node8" class="node"><title>UsersController</title>
<polyline fill="none" stroke="black" points="30,-324.5 130,-324.5 "/>
<path fill="none" stroke="black" d="M130,-324.5C136,-324.5 142,-330.5 142,-336.5"/>
<polyline fill="none" stroke="black" points="142,-336.5 142,-414.5 "/>
<path fill="none" stroke="black" d="M142,-414.5C142,-420.5 136,-426.5 130,-426.5"/>
<polyline fill="none" stroke="black" points="130,-426.5 30,-426.5 "/>
<path fill="none" stroke="black" d="M30,-426.5C24,-426.5 18,-420.5 18,-414.5"/>
<polyline fill="none" stroke="black" points="18,-414.5 18,-336.5 "/>
<path fill="none" stroke="black" d="M18,-336.5C18,-330.5 24,-324.5 30,-324.5"/>
<text text-anchor="middle" x="80" y="-409.9" font-family="Times Roman,serif" font-size="14.00">UsersController</text>
<polyline fill="none" stroke="black" points="18,-400.5 142,-400.5 "/>
<text text-anchor="start" x="26" y="-383.9" font-family="Times Roman,serif" font-size="14.00">show</text>
<polyline fill="none" stroke="black" points="18,-374.5 142,-374.5 "/>
<polyline fill="none" stroke="black" points="18,-350.5 142,-350.5 "/>
<text text-anchor="start" x="26" y="-333.9" font-family="Times Roman,serif" font-size="14.00">_layout</text>
</g>
<!-- ExercisesController -->
<g id="node9" class="node"><title>ExercisesController</title>
<polyline fill="none" stroke="black" points="523,-1.5 648,-1.5 "/>
<path fill="none" stroke="black" d="M648,-1.5C654,-1.5 660,-7.5 660,-13.5"/>
<polyline fill="none" stroke="black" points="660,-13.5 660,-109.5 "/>
<path fill="none" stroke="black" d="M660,-109.5C660,-115.5 654,-121.5 648,-121.5"/>
<polyline fill="none" stroke="black" points="648,-121.5 523,-121.5 "/>
<path fill="none" stroke="black" d="M523,-121.5C517,-121.5 511,-115.5 511,-109.5"/>
<polyline fill="none" stroke="black" points="511,-109.5 511,-13.5 "/>
<path fill="none" stroke="black" d="M511,-13.5C511,-7.5 517,-1.5 523,-1.5"/>
<text text-anchor="middle" x="585.5" y="-104.9" font-family="Times Roman,serif" font-size="14.00">ExercisesController</text>
<polyline fill="none" stroke="black" points="511,-95.5 660,-95.5 "/>
<text text-anchor="start" x="519" y="-78.9" font-family="Times Roman,serif" font-size="14.00">index</text>
<text text-anchor="start" x="519" y="-60.9" font-family="Times Roman,serif" font-size="14.00">show</text>
<polyline fill="none" stroke="black" points="511,-51.5 660,-51.5 "/>
<polyline fill="none" stroke="black" points="511,-27.5 660,-27.5 "/>
<text text-anchor="start" x="519" y="-10.9" font-family="Times Roman,serif" font-size="14.00">_layout</text>
</g>
<!-- AuthenticationsController -->
<g id="node10" class="node"><title>AuthenticationsController</title>
<polyline fill="none" stroke="black" points="166,-460.5 337,-460.5 "/>
<path fill="none" stroke="black" d="M337,-460.5C343,-460.5 349,-466.5 349,-472.5"/>
<polyline fill="none" stroke="black" points="349,-472.5 349,-586.5 "/>
<path fill="none" stroke="black" d="M349,-586.5C349,-592.5 343,-598.5 337,-598.5"/>
<polyline fill="none" stroke="black" points="337,-598.5 166,-598.5 "/>
<path fill="none" stroke="black" d="M166,-598.5C160,-598.5 154,-592.5 154,-586.5"/>
<polyline fill="none" stroke="black" points="154,-586.5 154,-472.5 "/>
<path fill="none" stroke="black" d="M154,-472.5C154,-466.5 160,-460.5 166,-460.5"/>
<text text-anchor="middle" x="251.5" y="-581.9" font-family="Times Roman,serif" font-size="14.00">AuthenticationsController</text>
<polyline fill="none" stroke="black" points="154,-572.5 349,-572.5 "/>
<text text-anchor="start" x="162" y="-555.9" font-family="Times Roman,serif" font-size="14.00">create</text>
<text text-anchor="start" x="162" y="-537.9" font-family="Times Roman,serif" font-size="14.00">destroy</text>
<text text-anchor="start" x="162" y="-519.9" font-family="Times Roman,serif" font-size="14.00">index</text>
<polyline fill="none" stroke="black" points="154,-510.5 349,-510.5 "/>
<polyline fill="none" stroke="black" points="154,-486.5 349,-486.5 "/>
<text text-anchor="start" x="162" y="-469.9" font-family="Times Roman,serif" font-size="14.00">_layout</text>
</g>
<!-- TipsController -->
<g id="node11" class="node"><title>TipsController</title>
<polyline fill="none" stroke="black" points="13,-613.5 102,-613.5 "/>
<path fill="none" stroke="black" d="M102,-613.5C108,-613.5 114,-619.5 114,-625.5"/>
<polyline fill="none" stroke="black" points="114,-625.5 114,-721.5 "/>
<path fill="none" stroke="black" d="M114,-721.5C114,-727.5 108,-733.5 102,-733.5"/>
<polyline fill="none" stroke="black" points="102,-733.5 13,-733.5 "/>
<path fill="none" stroke="black" d="M13,-733.5C7,-733.5 1,-727.5 1,-721.5"/>
<polyline fill="none" stroke="black" points="1,-721.5 1,-625.5 "/>
<path fill="none" stroke="black" d="M1,-625.5C1,-619.5 7,-613.5 13,-613.5"/>
<text text-anchor="middle" x="57.5" y="-716.9" font-family="Times Roman,serif" font-size="14.00">TipsController</text>
<polyline fill="none" stroke="black" points="1,-707.5 114,-707.5 "/>
<text text-anchor="start" x="9" y="-690.9" font-family="Times Roman,serif" font-size="14.00">index</text>
<text text-anchor="start" x="9" y="-672.9" font-family="Times Roman,serif" font-size="14.00">show</text>
<polyline fill="none" stroke="black" points="1,-663.5 114,-663.5 "/>
<polyline fill="none" stroke="black" points="1,-639.5 114,-639.5 "/>
<text text-anchor="start" x="9" y="-622.9" font-family="Times Roman,serif" font-size="14.00">_layout</text>
</g>
</g>
</svg>
