<?xml version="1.0" encoding="UTF-8" standalone="no"?>
<!DOCTYPE svg PUBLIC "-//W3C//DTD SVG 1.1//EN"
 "http://www.w3.org/Graphics/SVG/1.1/DTD/svg11.dtd">
<!-- Generated by graphviz version 2.26.3 (20100126.1600)
 -->
<!-- Title: models_diagram Pages: 1 -->
<svg width="1063pt" height="250pt"
 viewBox="0.00 0.00 1063.00 250.00" xmlns="http://www.w3.org/2000/svg" xmlns:xlink="http://www.w3.org/1999/xlink">
<g id="graph1" class="graph" transform="scale(1 1) rotate(0) translate(4 246)">
<title>models_diagram</title>
<polygon fill="white" stroke="white" points="-4,5 -4,-246 1060,-246 1060,5 -4,5"/>
<!-- _diagram_info -->
<g id="node1" class="node"><title>_diagram_info</title>
<text text-anchor="start" x="8" y="-225.8" font-family="Times Roman,serif" font-size="13.00">Models diagram</text>
<text text-anchor="start" x="8" y="-208.8" font-family="Times Roman,serif" font-size="13.00">Date: Aug 08 2012 &#45; 14:31</text>
<text text-anchor="start" x="8" y="-191.8" font-family="Times Roman,serif" font-size="13.00">Migration version: 0</text>
<text text-anchor="start" x="8" y="-174.8" font-family="Times Roman,serif" font-size="13.00">Generated by RailRoady 1.0.8</text>
<text text-anchor="start" x="8" y="-157.8" font-family="Times Roman,serif" font-size="13.00">http://railroady.prestonlee.com</text>
</g>
<!-- User -->
<g id="node2" class="node"><title>User</title>
<ellipse fill="none" stroke="black" cx="503" cy="-93" rx="33.9411" ry="18.3848"/>
<text text-anchor="middle" x="503" y="-89.4" font-family="Times Roman,serif" font-size="14.00">User</text>
</g>
<!-- Answer -->
<g id="node8" class="node"><title>Answer</title>
<ellipse fill="none" stroke="black" cx="302" cy="-19" rx="48.7904" ry="18.3848"/>
<text text-anchor="middle" x="302" y="-15.4" font-family="Times Roman,serif" font-size="14.00">Answer</text>
</g>
<!-- User&#45;&gt;Answer -->
<g id="edge4" class="edge"><title>User&#45;&gt;Answer</title>
<path fill="none" stroke="#2e0aa1" d="M469.161,-77.742C466.077,-76.4442 462.99,-75.1786 460,-74 439.325,-65.8492 386.908,-47.7895 348.087,-34.5801"/>
<ellipse fill="none" stroke="#2e0aa1" cx="473.087" cy="-79.4264" rx="4.00002" ry="4.00002"/>
<polygon fill="#2e0aa1" stroke="#2e0aa1" points="348.006,-34.5527 339.986,-27.0746 343.272,-32.944 338.538,-31.3353 338.538,-31.3353 338.538,-31.3353 343.272,-32.944 337.09,-35.5961 348.006,-34.5527 348.006,-34.5527"/>
</g>
<!-- Authentication -->
<g id="node9" class="node"><title>Authentication</title>
<ellipse fill="none" stroke="black" cx="665" cy="-19" rx="84.1457" ry="18.3848"/>
<text text-anchor="middle" x="665" y="-15.4" font-family="Times Roman,serif" font-size="14.00">Authentication</text>
</g>
<!-- User&#45;&gt;Authentication -->
<g id="edge2" class="edge"><title>User&#45;&gt;Authentication</title>
<path fill="none" stroke="#9ec473" d="M536.983,-77.4769C560.801,-66.5972 592.914,-51.928 619.019,-40.0038"/>
<ellipse fill="none" stroke="#9ec473" cx="533.027" cy="-79.2839" rx="4.00002" ry="4.00002"/>
<polygon fill="#9ec473" stroke="#9ec473" points="619.242,-39.902 630.208,-39.8401 623.79,-37.8245 628.338,-35.747 628.338,-35.747 628.338,-35.747 623.79,-37.8245 626.468,-31.6538 619.242,-39.902 619.242,-39.902"/>
</g>
<!-- TipsCount -->
<g id="node12" class="node"><title>TipsCount</title>
<ellipse fill="none" stroke="black" cx="502" cy="-19" rx="60.8112" ry="18.3848"/>
<text text-anchor="middle" x="502" y="-15.4" font-family="Times Roman,serif" font-size="14.00">TipsCount</text>
</g>
<!-- User&#45;&gt;TipsCount -->
<g id="edge6" class="edge"><title>User&#45;&gt;TipsCount</title>
<path fill="none" stroke="#472fab" d="M502.639,-66.309C502.559,-60.3769 502.474,-54.0606 502.392,-48.0396"/>
<ellipse fill="none" stroke="#472fab" cx="502.694" cy="-70.327" rx="4" ry="4"/>
<polygon fill="#472fab" stroke="#472fab" points="502.387,-47.6664 506.752,-37.6065 502.32,-42.6669 502.252,-37.6674 502.252,-37.6674 502.252,-37.6674 502.32,-42.6669 497.753,-37.7282 502.387,-47.6664 502.387,-47.6664"/>
</g>
<!-- LastAnswers -->
<g id="node3" class="node"><title>LastAnswers</title>
<ellipse fill="none" stroke="black" cx="302" cy="-195" rx="74.2462" ry="18.3848"/>
<text text-anchor="middle" x="302" y="-191.4" font-family="Times Roman,serif" font-size="14.00">LastAnswers</text>
</g>
<!-- LastAnswers&#45;&gt;Answer -->
<g id="edge10" class="edge"><title>LastAnswers&#45;&gt;Answer</title>
<path fill="none" stroke="#2c2a58" d="M302,-168.381C302,-135.268 302,-79.0544 302,-45.8392"/>
<ellipse fill="none" stroke="#2c2a58" cx="302" cy="-172.498" rx="4" ry="4"/>
<ellipse fill="#2c2a58" stroke="#2c2a58" cx="302" cy="-41.5186" rx="4" ry="4"/>
</g>
<!-- Question -->
<g id="node11" class="node"><title>Question</title>
<ellipse fill="none" stroke="black" cx="395" cy="-93" rx="55.8614" ry="18.3848"/>
<text text-anchor="middle" x="395" y="-89.4" font-family="Times Roman,serif" font-size="14.00">Question</text>
</g>
<!-- LastAnswers&#45;&gt;Question -->
<g id="edge8" class="edge"><title>LastAnswers&#45;&gt;Question</title>
<path fill="none" stroke="#cb541f" d="M324.083,-170.779C338.933,-154.492 358.421,-133.118 373.21,-116.899"/>
<ellipse fill="none" stroke="#cb541f" cx="321.322" cy="-173.809" rx="4.00002" ry="4.00002"/>
<ellipse fill="#cb541f" stroke="#cb541f" cx="376.134" cy="-113.692" rx="4.00002" ry="4.00002"/>
</g>
<!-- Exercise -->
<g id="node4" class="node"><title>Exercise</title>
<ellipse fill="none" stroke="black" cx="445" cy="-195" rx="51.1176" ry="18.3848"/>
<text text-anchor="middle" x="445" y="-191.4" font-family="Times Roman,serif" font-size="14.00">Exercise</text>
</g>
<!-- Exercise&#45;&gt;Question -->
<g id="edge12" class="edge"><title>Exercise&#45;&gt;Question</title>
<path fill="none" stroke="#28bab6" d="M432.46,-169.419C425.204,-154.616 416.066,-135.975 408.632,-120.81"/>
<ellipse fill="none" stroke="#28bab6" cx="434.3" cy="-173.173" rx="4.00002" ry="4.00002"/>
<polygon fill="#28bab6" stroke="#28bab6" points="408.432,-120.401 408.071,-109.441 406.231,-115.911 404.03,-111.422 404.03,-111.422 404.03,-111.422 406.231,-115.911 399.99,-113.402 408.432,-120.401 408.432,-120.401"/>
</g>
<!-- Ckeditor::Asset -->
<g id="node5" class="node"><title>Ckeditor::Asset</title>
<ellipse fill="none" stroke="black" cx="810" cy="-195" rx="85.0596" ry="18.3848"/>
<text text-anchor="middle" x="810" y="-191.4" font-family="Times Roman,serif" font-size="14.00">Ckeditor::Asset</text>
</g>
<!-- Ckeditor::AttachmentFile -->
<g id="node6" class="node"><title>Ckeditor::AttachmentFile</title>
<ellipse fill="none" stroke="black" cx="688" cy="-93" rx="132.936" ry="18.3848"/>
<text text-anchor="middle" x="688" y="-89.4" font-family="Times Roman,serif" font-size="14.00">Ckeditor::AttachmentFile</text>
</g>
<!-- Ckeditor::Asset&#45;&gt;Ckeditor::AttachmentFile -->
<g id="edge14" class="edge"><title>Ckeditor::Asset&#45;&gt;Ckeditor::AttachmentFile</title>
<path fill="none" stroke="black" d="M788.47,-176.999C766.443,-158.583 732.384,-130.108 710.139,-111.509"/>
</g>
<!-- Ckeditor::Picture -->
<g id="node7" class="node"><title>Ckeditor::Picture</title>
<ellipse fill="none" stroke="black" cx="932" cy="-93" rx="92.839" ry="18.3848"/>
<text text-anchor="middle" x="932" y="-89.4" font-family="Times Roman,serif" font-size="14.00">Ckeditor::Picture</text>
</g>
<!-- Ckeditor::Asset&#45;&gt;Ckeditor::Picture -->
<g id="edge16" class="edge"><title>Ckeditor::Asset&#45;&gt;Ckeditor::Picture</title>
<path fill="none" stroke="black" d="M831.53,-176.999C853.694,-158.469 888.04,-129.754 910.275,-111.164"/>
</g>
<!-- Tip -->
<g id="node10" class="node"><title>Tip</title>
<ellipse fill="none" stroke="black" cx="396" cy="-19" rx="27" ry="18.3848"/>
<text text-anchor="middle" x="396" y="-15.4" font-family="Times Roman,serif" font-size="14.00">Tip</text>
</g>
<!-- Question&#45;&gt;Answer -->
<g id="edge18" class="edge"><title>Question&#45;&gt;Answer</title>
<path fill="none" stroke="#0457fe" d="M367.16,-70.8479C355.798,-61.8074 342.655,-51.3491 331.161,-42.2033"/>
<ellipse fill="none" stroke="#0457fe" cx="370.3" cy="-73.3463" rx="4.00002" ry="4.00002"/>
<polygon fill="#0457fe" stroke="#0457fe" points="330.957,-42.0413 325.934,-32.2936 327.045,-38.9281 323.132,-35.8149 323.132,-35.8149 323.132,-35.8149 327.045,-38.9281 320.33,-39.3362 330.957,-42.0413 330.957,-42.0413"/>
</g>
<!-- Question&#45;&gt;Tip -->
<g id="edge20" class="edge"><title>Question&#45;&gt;Tip</title>
<path fill="none" stroke="#7b8f78" d="M395.361,-66.309C395.441,-60.3769 395.526,-54.0606 395.608,-48.0396"/>
<ellipse fill="none" stroke="#7b8f78" cx="395.306" cy="-70.327" rx="4" ry="4"/>
<polygon fill="#7b8f78" stroke="#7b8f78" points="395.613,-47.6664 400.247,-37.7282 395.68,-42.6669 395.748,-37.6674 395.748,-37.6674 395.748,-37.6674 395.68,-42.6669 391.248,-37.6065 395.613,-47.6664 395.613,-47.6664"/>
</g>
<!-- Question&#45;&gt;TipsCount -->
<g id="edge22" class="edge"><title>Question&#45;&gt;TipsCount</title>
<path fill="none" stroke="#532d34" d="M426.056,-71.5222C439.597,-62.1569 455.482,-51.1711 469.214,-41.6743"/>
<ellipse fill="none" stroke="#532d34" cx="422.57" cy="-73.933" rx="4.00002" ry="4.00002"/>
<polygon fill="#532d34" stroke="#532d34" points="469.221,-41.6696 480.005,-39.6826 473.333,-38.8255 477.446,-35.9814 477.446,-35.9814 477.446,-35.9814 473.333,-38.8255 474.886,-32.2803 469.221,-41.6696 469.221,-41.6696"/>
</g>
<!-- Introduction -->
<g id="node13" class="node"><title>Introduction</title>
<ellipse fill="none" stroke="black" cx="984" cy="-195" rx="70.9184" ry="18.3848"/>
<text text-anchor="middle" x="984" y="-191.4" font-family="Times Roman,serif" font-size="14.00">Introduction</text>
</g>
</g>
</svg>
