<?xml version="1.0" encoding="UTF-8" standalone="no"?>
<!DOCTYPE svg PUBLIC "-//W3C//DTD SVG 1.1//EN"
 "http://www.w3.org/Graphics/SVG/1.1/DTD/svg11.dtd">
<!-- Generated by graphviz version 2.26.3 (20100126.1600)
 -->
<!-- Title: models_diagram Pages: 1 -->
<svg width="1310pt" height="782pt"
 viewBox="0.00 0.00 1310.00 782.00" xmlns="http://www.w3.org/2000/svg" xmlns:xlink="http://www.w3.org/1999/xlink">
<g id="graph1" class="graph" transform="scale(1 1) rotate(0) translate(4 778)">
<title>models_diagram</title>
<polygon fill="white" stroke="white" points="-4,5 -4,-778 1307,-778 1307,5 -4,5"/>
<!-- _diagram_info -->
<g id="node1" class="node"><title>_diagram_info</title>
<text text-anchor="start" x="8" y="-696.8" font-family="Times Roman,serif" font-size="13.00">Models diagram</text>
<text text-anchor="start" x="8" y="-679.8" font-family="Times Roman,serif" font-size="13.00">Date: Aug 08 2012 &#45; 14:31</text>
<text text-anchor="start" x="8" y="-662.8" font-family="Times Roman,serif" font-size="13.00">Migration version: 0</text>
<text text-anchor="start" x="8" y="-645.8" font-family="Times Roman,serif" font-size="13.00">Generated by RailRoady 1.0.8</text>
<text text-anchor="start" x="8" y="-628.8" font-family="Times Roman,serif" font-size="13.00">http://railroady.prestonlee.com</text>
</g>
<!-- User -->
<g id="node2" class="node"><title>User</title>
<polyline fill="none" stroke="black" points="585,-271 787,-271 "/>
<path fill="none" stroke="black" d="M787,-271C793,-271 799,-277 799,-283"/>
<polyline fill="none" stroke="black" points="799,-283 799,-509 "/>
<path fill="none" stroke="black" d="M799,-509C799,-515 793,-521 787,-521"/>
<polyline fill="none" stroke="black" points="787,-521 585,-521 "/>
<path fill="none" stroke="black" d="M585,-521C579,-521 573,-515 573,-509"/>
<polyline fill="none" stroke="black" points="573,-509 573,-283 "/>
<path fill="none" stroke="black" d="M573,-283C573,-277 579,-271 585,-271"/>
<text text-anchor="middle" x="686" y="-504.4" font-family="Times Roman,serif" font-size="14.00">User</text>
<polyline fill="none" stroke="black" points="573,-495 799,-495 "/>
<text text-anchor="start" x="581" y="-478.4" font-family="Times Roman,serif" font-size="14.00">_id :BSON::ObjectId</text>
<text text-anchor="start" x="581" y="-460.4" font-family="Times Roman,serif" font-size="14.00">_type :String</text>
<text text-anchor="start" x="581" y="-442.4" font-family="Times Roman,serif" font-size="14.00">current_sign_in_at :Time</text>
<text text-anchor="start" x="581" y="-424.4" font-family="Times Roman,serif" font-size="14.00">current_sign_in_ip :String</text>
<text text-anchor="start" x="581" y="-406.4" font-family="Times Roman,serif" font-size="14.00">email :String</text>
<text text-anchor="start" x="581" y="-388.4" font-family="Times Roman,serif" font-size="14.00">encrypted_password :String</text>
<text text-anchor="start" x="581" y="-370.4" font-family="Times Roman,serif" font-size="14.00">last_sign_in_at :Time</text>
<text text-anchor="start" x="581" y="-352.4" font-family="Times Roman,serif" font-size="14.00">last_sign_in_ip :String</text>
<text text-anchor="start" x="581" y="-334.4" font-family="Times Roman,serif" font-size="14.00">remember_created_at :Time</text>
<text text-anchor="start" x="581" y="-316.4" font-family="Times Roman,serif" font-size="14.00">reset_password_sent_at :Time</text>
<text text-anchor="start" x="581" y="-298.4" font-family="Times Roman,serif" font-size="14.00">reset_password_token :String</text>
<text text-anchor="start" x="581" y="-280.4" font-family="Times Roman,serif" font-size="14.00">sign_in_count :Integer</text>
</g>
<!-- Answer -->
<g id="node8" class="node"><title>Answer</title>
<polyline fill="none" stroke="black" points="225.5,-1 374.5,-1 "/>
<path fill="none" stroke="black" d="M374.5,-1C380.5,-1 386.5,-7 386.5,-13"/>
<polyline fill="none" stroke="black" points="386.5,-13 386.5,-221 "/>
<path fill="none" stroke="black" d="M386.5,-221C386.5,-227 380.5,-233 374.5,-233"/>
<polyline fill="none" stroke="black" points="374.5,-233 225.5,-233 "/>
<path fill="none" stroke="black" d="M225.5,-233C219.5,-233 213.5,-227 213.5,-221"/>
<polyline fill="none" stroke="black" points="213.5,-221 213.5,-13 "/>
<path fill="none" stroke="black" d="M213.5,-13C213.5,-7 219.5,-1 225.5,-1"/>
<text text-anchor="middle" x="300" y="-216.4" font-family="Times Roman,serif" font-size="14.00">Answer</text>
<polyline fill="none" stroke="black" points="213.5,-207 386.5,-207 "/>
<text text-anchor="start" x="221.5" y="-190.4" font-family="Times Roman,serif" font-size="14.00">_id :BSON::ObjectId</text>
<text text-anchor="start" x="221.5" y="-172.4" font-family="Times Roman,serif" font-size="14.00">_type :String</text>
<text text-anchor="start" x="221.5" y="-154.4" font-family="Times Roman,serif" font-size="14.00">correct :Boolean</text>
<text text-anchor="start" x="221.5" y="-136.4" font-family="Times Roman,serif" font-size="14.00">created_at :Time</text>
<text text-anchor="start" x="221.5" y="-118.4" font-family="Times Roman,serif" font-size="14.00">last_answer_id :Object</text>
<text text-anchor="start" x="221.5" y="-100.4" font-family="Times Roman,serif" font-size="14.00">question_id :Object</text>
<text text-anchor="start" x="221.5" y="-82.4" font-family="Times Roman,serif" font-size="14.00">response :Object</text>
<text text-anchor="start" x="221.5" y="-64.4" font-family="Times Roman,serif" font-size="14.00">tip :Object</text>
<text text-anchor="start" x="221.5" y="-46.4" font-family="Times Roman,serif" font-size="14.00">try_number :Integer</text>
<text text-anchor="start" x="221.5" y="-28.4" font-family="Times Roman,serif" font-size="14.00">updated_at :Time</text>
<text text-anchor="start" x="221.5" y="-10.4" font-family="Times Roman,serif" font-size="14.00">user_id :Object</text>
</g>
<!-- User&#45;&gt;Answer -->
<g id="edge4" class="edge"><title>User&#45;&gt;Answer</title>
<path fill="none" stroke="#2531f8" d="M565.73,-272.108C564.491,-271.389 563.248,-270.686 562,-270 498.201,-234.909 462.693,-270.545 395.568,-233.685"/>
<ellipse fill="none" stroke="#2531f8" cx="569.353" cy="-274.311" rx="4.00002" ry="4.00002"/>
<polygon fill="#2531f8" stroke="#2531f8" points="395.411,-233.593 389.048,-224.661 391.094,-231.069 386.777,-228.546 386.777,-228.546 386.777,-228.546 391.094,-231.069 384.506,-232.431 395.411,-233.593 395.411,-233.593"/>
</g>
<!-- Authentication -->
<g id="node9" class="node"><title>Authentication</title>
<polyline fill="none" stroke="black" points="792,-73 920,-73 "/>
<path fill="none" stroke="black" d="M920,-73C926,-73 932,-79 932,-85"/>
<polyline fill="none" stroke="black" points="932,-85 932,-149 "/>
<path fill="none" stroke="black" d="M932,-149C932,-155 926,-161 920,-161"/>
<polyline fill="none" stroke="black" points="920,-161 792,-161 "/>
<path fill="none" stroke="black" d="M792,-161C786,-161 780,-155 780,-149"/>
<polyline fill="none" stroke="black" points="780,-149 780,-85 "/>
<path fill="none" stroke="black" d="M780,-85C780,-79 786,-73 792,-73"/>
<text text-anchor="middle" x="856" y="-144.4" font-family="Times Roman,serif" font-size="14.00">Authentication</text>
<polyline fill="none" stroke="black" points="780,-135 932,-135 "/>
<text text-anchor="start" x="788" y="-118.4" font-family="Times Roman,serif" font-size="14.00">_id :BSON::ObjectId</text>
<text text-anchor="start" x="788" y="-100.4" font-family="Times Roman,serif" font-size="14.00">_type :String</text>
<text text-anchor="start" x="788" y="-82.4" font-family="Times Roman,serif" font-size="14.00">user_id :Object</text>
</g>
<!-- User&#45;&gt;Authentication -->
<g id="edge2" class="edge"><title>User&#45;&gt;Authentication</title>
<path fill="none" stroke="#10bff2" d="M766.511,-263.868C786.812,-230.549 807.456,-196.669 823.793,-169.857"/>
<ellipse fill="none" stroke="#10bff2" cx="764.379" cy="-267.366" rx="4.00002" ry="4.00002"/>
<polygon fill="#10bff2" stroke="#10bff2" points="823.958,-169.586 833.004,-163.388 826.56,-165.316 829.162,-161.047 829.162,-161.047 829.162,-161.047 826.56,-165.316 825.319,-158.705 823.958,-169.586 823.958,-169.586"/>
</g>
<!-- TipsCount -->
<g id="node12" class="node"><title>TipsCount</title>
<polyline fill="none" stroke="black" points="622,-55 750,-55 "/>
<path fill="none" stroke="black" d="M750,-55C756,-55 762,-61 762,-67"/>
<polyline fill="none" stroke="black" points="762,-67 762,-167 "/>
<path fill="none" stroke="black" d="M762,-167C762,-173 756,-179 750,-179"/>
<polyline fill="none" stroke="black" points="750,-179 622,-179 "/>
<path fill="none" stroke="black" d="M622,-179C616,-179 610,-173 610,-167"/>
<polyline fill="none" stroke="black" points="610,-167 610,-67 "/>
<path fill="none" stroke="black" d="M610,-67C610,-61 616,-55 622,-55"/>
<text text-anchor="middle" x="686" y="-162.4" font-family="Times Roman,serif" font-size="14.00">TipsCount</text>
<polyline fill="none" stroke="black" points="610,-153 762,-153 "/>
<text text-anchor="start" x="618" y="-136.4" font-family="Times Roman,serif" font-size="14.00">_id :BSON::ObjectId</text>
<text text-anchor="start" x="618" y="-118.4" font-family="Times Roman,serif" font-size="14.00">_type :String</text>
<text text-anchor="start" x="618" y="-100.4" font-family="Times Roman,serif" font-size="14.00">question_id :Object</text>
<text text-anchor="start" x="618" y="-82.4" font-family="Times Roman,serif" font-size="14.00">tries :Integer</text>
<text text-anchor="start" x="618" y="-64.4" font-family="Times Roman,serif" font-size="14.00">user_id :Object</text>
</g>
<!-- User&#45;&gt;TipsCount -->
<g id="edge6" class="edge"><title>User&#45;&gt;TipsCount</title>
<path fill="none" stroke="#12f123" d="M686,-262.585C686,-237.341 686,-211.831 686,-189.37"/>
<ellipse fill="none" stroke="#12f123" cx="686" cy="-266.782" rx="4" ry="4"/>
<polygon fill="#12f123" stroke="#12f123" points="686,-189.276 690.5,-179.276 686,-184.276 686,-179.276 686,-179.276 686,-179.276 686,-184.276 681.5,-179.276 686,-189.276 686,-189.276"/>
</g>
<!-- LastAnswers -->
<g id="node3" class="node"><title>LastAnswers</title>
<polyline fill="none" stroke="black" points="240,-622 368,-622 "/>
<path fill="none" stroke="black" d="M368,-622C374,-622 380,-628 380,-634"/>
<polyline fill="none" stroke="black" points="380,-634 380,-698 "/>
<path fill="none" stroke="black" d="M380,-698C380,-704 374,-710 368,-710"/>
<polyline fill="none" stroke="black" points="368,-710 240,-710 "/>
<path fill="none" stroke="black" d="M240,-710C234,-710 228,-704 228,-698"/>
<polyline fill="none" stroke="black" points="228,-698 228,-634 "/>
<path fill="none" stroke="black" d="M228,-634C228,-628 234,-622 240,-622"/>
<text text-anchor="middle" x="304" y="-693.4" font-family="Times Roman,serif" font-size="14.00">LastAnswers</text>
<polyline fill="none" stroke="black" points="228,-684 380,-684 "/>
<text text-anchor="start" x="236" y="-667.4" font-family="Times Roman,serif" font-size="14.00">_id :BSON::ObjectId</text>
<text text-anchor="start" x="236" y="-649.4" font-family="Times Roman,serif" font-size="14.00">_type :String</text>
<text text-anchor="start" x="236" y="-631.4" font-family="Times Roman,serif" font-size="14.00">user_id :Object</text>
</g>
<!-- LastAnswers&#45;&gt;Answer -->
<g id="edge10" class="edge"><title>LastAnswers&#45;&gt;Answer</title>
<path fill="none" stroke="#1cb8a3" d="M303.617,-613.401C302.998,-528.44 301.761,-358.708 300.907,-241.551"/>
<ellipse fill="none" stroke="#1cb8a3" cx="303.647" cy="-617.538" rx="4" ry="4"/>
<ellipse fill="#1cb8a3" stroke="#1cb8a3" cx="300.876" cy="-237.208" rx="4" ry="4"/>
</g>
<!-- Question -->
<g id="node11" class="node"><title>Question</title>
<polyline fill="none" stroke="black" points="389,-316 541,-316 "/>
<path fill="none" stroke="black" d="M541,-316C547,-316 553,-322 553,-328"/>
<polyline fill="none" stroke="black" points="553,-328 553,-464 "/>
<path fill="none" stroke="black" d="M553,-464C553,-470 547,-476 541,-476"/>
<polyline fill="none" stroke="black" points="541,-476 389,-476 "/>
<path fill="none" stroke="black" d="M389,-476C383,-476 377,-470 377,-464"/>
<polyline fill="none" stroke="black" points="377,-464 377,-328 "/>
<path fill="none" stroke="black" d="M377,-328C377,-322 383,-316 389,-316"/>
<text text-anchor="middle" x="465" y="-459.4" font-family="Times Roman,serif" font-size="14.00">Question</text>
<polyline fill="none" stroke="black" points="377,-450 553,-450 "/>
<text text-anchor="start" x="385" y="-433.4" font-family="Times Roman,serif" font-size="14.00">_id :BSON::ObjectId</text>
<text text-anchor="start" x="385" y="-415.4" font-family="Times Roman,serif" font-size="14.00">_type :String</text>
<text text-anchor="start" x="385" y="-397.4" font-family="Times Roman,serif" font-size="14.00">content :Object</text>
<text text-anchor="start" x="385" y="-379.4" font-family="Times Roman,serif" font-size="14.00">correct_answer :Object</text>
<text text-anchor="start" x="385" y="-361.4" font-family="Times Roman,serif" font-size="14.00">exercise_id :Object</text>
<text text-anchor="start" x="385" y="-343.4" font-family="Times Roman,serif" font-size="14.00">last_answer_id :Object</text>
<text text-anchor="start" x="385" y="-325.4" font-family="Times Roman,serif" font-size="14.00">title :Object</text>
</g>
<!-- LastAnswers&#45;&gt;Question -->
<g id="edge8" class="edge"><title>LastAnswers&#45;&gt;Question</title>
<path fill="none" stroke="#68fc1e" d="M334.652,-614.596C356.802,-577.451 387.255,-526.38 413.156,-482.944"/>
<ellipse fill="none" stroke="#68fc1e" cx="332.454" cy="-618.282" rx="4.00002" ry="4.00002"/>
<ellipse fill="#68fc1e" stroke="#68fc1e" cx="415.223" cy="-479.477" rx="4.00002" ry="4.00002"/>
</g>
<!-- Exercise -->
<g id="node4" class="node"><title>Exercise</title>
<polyline fill="none" stroke="black" points="415.5,-613 514.5,-613 "/>
<path fill="none" stroke="black" d="M514.5,-613C520.5,-613 526.5,-619 526.5,-625"/>
<polyline fill="none" stroke="black" points="526.5,-625 526.5,-707 "/>
<path fill="none" stroke="black" d="M526.5,-707C526.5,-713 520.5,-719 514.5,-719"/>
<polyline fill="none" stroke="black" points="514.5,-719 415.5,-719 "/>
<path fill="none" stroke="black" d="M415.5,-719C409.5,-719 403.5,-713 403.5,-707"/>
<polyline fill="none" stroke="black" points="403.5,-707 403.5,-625 "/>
<path fill="none" stroke="black" d="M403.5,-625C403.5,-619 409.5,-613 415.5,-613"/>
<text text-anchor="middle" x="465" y="-702.4" font-family="Times Roman,serif" font-size="14.00">Exercise</text>
<polyline fill="none" stroke="black" points="403.5,-693 526.5,-693 "/>
<text text-anchor="start" x="411.5" y="-676.4" font-family="Times Roman,serif" font-size="14.00">_id :String</text>
<text text-anchor="start" x="411.5" y="-658.4" font-family="Times Roman,serif" font-size="14.00">_type :String</text>
<text text-anchor="start" x="411.5" y="-640.4" font-family="Times Roman,serif" font-size="14.00">content :Object</text>
<text text-anchor="start" x="411.5" y="-622.4" font-family="Times Roman,serif" font-size="14.00">title :Object</text>
</g>
<!-- Exercise&#45;&gt;Question -->
<g id="edge12" class="edge"><title>Exercise&#45;&gt;Question</title>
<path fill="none" stroke="#dea2ba" d="M465,-604.541C465,-569.588 465,-525.17 465,-486.317"/>
<ellipse fill="none" stroke="#dea2ba" cx="465" cy="-608.979" rx="4" ry="4"/>
<polygon fill="#dea2ba" stroke="#dea2ba" points="465,-486.046 469.5,-476.045 465,-481.046 465,-476.046 465,-476.046 465,-476.046 465,-481.046 460.5,-476.046 465,-486.046 465,-486.046"/>
</g>
<!-- Ckeditor::Asset -->
<g id="node5" class="node"><title>Ckeditor::Asset</title>
<polyline fill="none" stroke="black" points="947.5,-559 1120.5,-559 "/>
<path fill="none" stroke="black" d="M1120.5,-559C1126.5,-559 1132.5,-565 1132.5,-571"/>
<polyline fill="none" stroke="black" points="1132.5,-571 1132.5,-761 "/>
<path fill="none" stroke="black" d="M1132.5,-761C1132.5,-767 1126.5,-773 1120.5,-773"/>
<polyline fill="none" stroke="black" points="1120.5,-773 947.5,-773 "/>
<path fill="none" stroke="black" d="M947.5,-773C941.5,-773 935.5,-767 935.5,-761"/>
<polyline fill="none" stroke="black" points="935.5,-761 935.5,-571 "/>
<path fill="none" stroke="black" d="M935.5,-571C935.5,-565 941.5,-559 947.5,-559"/>
<text text-anchor="middle" x="1034" y="-756.4" font-family="Times Roman,serif" font-size="14.00">Ckeditor::Asset</text>
<polyline fill="none" stroke="black" points="935.5,-747 1132.5,-747 "/>
<text text-anchor="start" x="943.5" y="-730.4" font-family="Times Roman,serif" font-size="14.00">_id :BSON::ObjectId</text>
<text text-anchor="start" x="943.5" y="-712.4" font-family="Times Roman,serif" font-size="14.00">_type :String</text>
<text text-anchor="start" x="943.5" y="-694.4" font-family="Times Roman,serif" font-size="14.00">assetable_id :Object</text>
<text text-anchor="start" x="943.5" y="-676.4" font-family="Times Roman,serif" font-size="14.00">assetable_type :String</text>
<text text-anchor="start" x="943.5" y="-658.4" font-family="Times Roman,serif" font-size="14.00">created_at :Time</text>
<text text-anchor="start" x="943.5" y="-640.4" font-family="Times Roman,serif" font-size="14.00">data_content_type :String</text>
<text text-anchor="start" x="943.5" y="-622.4" font-family="Times Roman,serif" font-size="14.00">data_file_size :Integer</text>
<text text-anchor="start" x="943.5" y="-604.4" font-family="Times Roman,serif" font-size="14.00">height :Integer</text>
<text text-anchor="start" x="943.5" y="-586.4" font-family="Times Roman,serif" font-size="14.00">updated_at :Time</text>
<text text-anchor="start" x="943.5" y="-568.4" font-family="Times Roman,serif" font-size="14.00">width :Integer</text>
</g>
<!-- Ckeditor::AttachmentFile -->
<g id="node6" class="node"><title>Ckeditor::AttachmentFile</title>
<polyline fill="none" stroke="black" points="828.5,-271 1013.5,-271 "/>
<path fill="none" stroke="black" d="M1013.5,-271C1019.5,-271 1025.5,-277 1025.5,-283"/>
<polyline fill="none" stroke="black" points="1025.5,-283 1025.5,-509 "/>
<path fill="none" stroke="black" d="M1025.5,-509C1025.5,-515 1019.5,-521 1013.5,-521"/>
<polyline fill="none" stroke="black" points="1013.5,-521 828.5,-521 "/>
<path fill="none" stroke="black" d="M828.5,-521C822.5,-521 816.5,-515 816.5,-509"/>
<polyline fill="none" stroke="black" points="816.5,-509 816.5,-283 "/>
<path fill="none" stroke="black" d="M816.5,-283C816.5,-277 822.5,-271 828.5,-271"/>
<text text-anchor="middle" x="921" y="-504.4" font-family="Times Roman,serif" font-size="14.00">Ckeditor::AttachmentFile</text>
<polyline fill="none" stroke="black" points="816.5,-495 1025.5,-495 "/>
<text text-anchor="start" x="824.5" y="-478.4" font-family="Times Roman,serif" font-size="14.00">_id :BSON::ObjectId</text>
<text text-anchor="start" x="824.5" y="-460.4" font-family="Times Roman,serif" font-size="14.00">_type :String</text>
<text text-anchor="start" x="824.5" y="-442.4" font-family="Times Roman,serif" font-size="14.00">assetable_id :Object</text>
<text text-anchor="start" x="824.5" y="-424.4" font-family="Times Roman,serif" font-size="14.00">assetable_type :String</text>
<text text-anchor="start" x="824.5" y="-406.4" font-family="Times Roman,serif" font-size="14.00">created_at :Time</text>
<text text-anchor="start" x="824.5" y="-388.4" font-family="Times Roman,serif" font-size="14.00">data_content_type :String</text>
<text text-anchor="start" x="824.5" y="-370.4" font-family="Times Roman,serif" font-size="14.00">data_file_name :String</text>
<text text-anchor="start" x="824.5" y="-352.4" font-family="Times Roman,serif" font-size="14.00">data_file_size :Integer</text>
<text text-anchor="start" x="824.5" y="-334.4" font-family="Times Roman,serif" font-size="14.00">data_updated_at :DateTime</text>
<text text-anchor="start" x="824.5" y="-316.4" font-family="Times Roman,serif" font-size="14.00">height :Integer</text>
<text text-anchor="start" x="824.5" y="-298.4" font-family="Times Roman,serif" font-size="14.00">updated_at :Time</text>
<text text-anchor="start" x="824.5" y="-280.4" font-family="Times Roman,serif" font-size="14.00">width :Integer</text>
</g>
<!-- Ckeditor::Asset&#45;&gt;Ckeditor::AttachmentFile -->
<g id="edge14" class="edge"><title>Ckeditor::Asset&#45;&gt;Ckeditor::AttachmentFile</title>
<path fill="none" stroke="black" d="M989.177,-558.901C984.001,-546.534 978.688,-533.84 973.423,-521.259"/>
</g>
<!-- Ckeditor::Picture -->
<g id="node7" class="node"><title>Ckeditor::Picture</title>
<polyline fill="none" stroke="black" points="1054.5,-271 1239.5,-271 "/>
<path fill="none" stroke="black" d="M1239.5,-271C1245.5,-271 1251.5,-277 1251.5,-283"/>
<polyline fill="none" stroke="black" points="1251.5,-283 1251.5,-509 "/>
<path fill="none" stroke="black" d="M1251.5,-509C1251.5,-515 1245.5,-521 1239.5,-521"/>
<polyline fill="none" stroke="black" points="1239.5,-521 1054.5,-521 "/>
<path fill="none" stroke="black" d="M1054.5,-521C1048.5,-521 1042.5,-515 1042.5,-509"/>
<polyline fill="none" stroke="black" points="1042.5,-509 1042.5,-283 "/>
<path fill="none" stroke="black" d="M1042.5,-283C1042.5,-277 1048.5,-271 1054.5,-271"/>
<text text-anchor="middle" x="1147" y="-504.4" font-family="Times Roman,serif" font-size="14.00">Ckeditor::Picture</text>
<polyline fill="none" stroke="black" points="1042.5,-495 1251.5,-495 "/>
<text text-anchor="start" x="1050.5" y="-478.4" font-family="Times Roman,serif" font-size="14.00">_id :BSON::ObjectId</text>
<text text-anchor="start" x="1050.5" y="-460.4" font-family="Times Roman,serif" font-size="14.00">_type :String</text>
<text text-anchor="start" x="1050.5" y="-442.4" font-family="Times Roman,serif" font-size="14.00">assetable_id :Object</text>
<text text-anchor="start" x="1050.5" y="-424.4" font-family="Times Roman,serif" font-size="14.00">assetable_type :String</text>
<text text-anchor="start" x="1050.5" y="-406.4" font-family="Times Roman,serif" font-size="14.00">created_at :Time</text>
<text text-anchor="start" x="1050.5" y="-388.4" font-family="Times Roman,serif" font-size="14.00">data_content_type :String</text>
<text text-anchor="start" x="1050.5" y="-370.4" font-family="Times Roman,serif" font-size="14.00">data_file_name :String</text>
<text text-anchor="start" x="1050.5" y="-352.4" font-family="Times Roman,serif" font-size="14.00">data_file_size :Integer</text>
<text text-anchor="start" x="1050.5" y="-334.4" font-family="Times Roman,serif" font-size="14.00">data_updated_at :DateTime</text>
<text text-anchor="start" x="1050.5" y="-316.4" font-family="Times Roman,serif" font-size="14.00">height :Integer</text>
<text text-anchor="start" x="1050.5" y="-298.4" font-family="Times Roman,serif" font-size="14.00">updated_at :Time</text>
<text text-anchor="start" x="1050.5" y="-280.4" font-family="Times Roman,serif" font-size="14.00">width :Integer</text>
</g>
<!-- Ckeditor::Asset&#45;&gt;Ckeditor::Picture -->
<g id="edge16" class="edge"><title>Ckeditor::Asset&#45;&gt;Ckeditor::Picture</title>
<path fill="none" stroke="black" d="M1078.82,-558.901C1084,-546.534 1089.31,-533.84 1094.58,-521.259"/>
</g>
<!-- Tip -->
<g id="node10" class="node"><title>Tip</title>
<polyline fill="none" stroke="black" points="416,-55 580,-55 "/>
<path fill="none" stroke="black" d="M580,-55C586,-55 592,-61 592,-67"/>
<polyline fill="none" stroke="black" points="592,-67 592,-167 "/>
<path fill="none" stroke="black" d="M592,-167C592,-173 586,-179 580,-179"/>
<polyline fill="none" stroke="black" points="580,-179 416,-179 "/>
<path fill="none" stroke="black" d="M416,-179C410,-179 404,-173 404,-167"/>
<polyline fill="none" stroke="black" points="404,-167 404,-67 "/>
<path fill="none" stroke="black" d="M404,-67C404,-61 410,-55 416,-55"/>
<text text-anchor="middle" x="498" y="-162.4" font-family="Times Roman,serif" font-size="14.00">Tip</text>
<polyline fill="none" stroke="black" points="404,-153 592,-153 "/>
<text text-anchor="start" x="412" y="-136.4" font-family="Times Roman,serif" font-size="14.00">_id :BSON::ObjectId</text>
<text text-anchor="start" x="412" y="-118.4" font-family="Times Roman,serif" font-size="14.00">_type :String</text>
<text text-anchor="start" x="412" y="-100.4" font-family="Times Roman,serif" font-size="14.00">content :Object</text>
<text text-anchor="start" x="412" y="-82.4" font-family="Times Roman,serif" font-size="14.00">number_of_tries :Integer</text>
<text text-anchor="start" x="412" y="-64.4" font-family="Times Roman,serif" font-size="14.00">question_id :Object</text>
</g>
<!-- Question&#45;&gt;Answer -->
<g id="edge18" class="edge"><title>Question&#45;&gt;Answer</title>
<path fill="none" stroke="#68a179" d="M413.346,-308.657C400.786,-287.421 387.113,-264.3 373.749,-241.704"/>
<ellipse fill="none" stroke="#68a179" cx="415.46" cy="-312.233" rx="4.00002" ry="4.00002"/>
<polygon fill="#68a179" stroke="#68a179" points="373.736,-241.681 372.519,-230.783 371.191,-237.378 368.646,-233.074 368.646,-233.074 368.646,-233.074 371.191,-237.378 364.772,-235.365 373.736,-241.681 373.736,-241.681"/>
</g>
<!-- Question&#45;&gt;Tip -->
<g id="edge20" class="edge"><title>Question&#45;&gt;Tip</title>
<path fill="none" stroke="#c39dbf" d="M475.446,-307.682C479.968,-269.449 485.195,-225.261 489.477,-189.055"/>
<ellipse fill="none" stroke="#c39dbf" cx="474.971" cy="-311.704" rx="4.00001" ry="4.00001"/>
<polygon fill="#c39dbf" stroke="#c39dbf" points="489.484,-188.997 495.128,-179.595 490.071,-184.032 490.659,-179.067 490.659,-179.067 490.659,-179.067 490.071,-184.032 486.19,-178.538 489.484,-188.997 489.484,-188.997"/>
</g>
<!-- Question&#45;&gt;TipsCount -->
<g id="edge22" class="edge"><title>Question&#45;&gt;TipsCount</title>
<path fill="none" stroke="#444102" d="M530.753,-309.16C541.573,-295.801 552.888,-282.353 564,-270 579.344,-252.942 585.98,-251.344 601,-234 613.597,-219.454 626.269,-203.131 637.843,-187.399"/>
<ellipse fill="none" stroke="#444102" cx="527.993" cy="-312.589" rx="4.00002" ry="4.00002"/>
<polygon fill="#444102" stroke="#444102" points="637.9,-187.32 647.426,-181.888 640.845,-183.279 643.789,-179.238 643.789,-179.238 643.789,-179.238 640.845,-183.279 640.152,-176.588 637.9,-187.32 637.9,-187.32"/>
</g>
<!-- Introduction -->
<g id="node13" class="node"><title>Introduction</title>
<polyline fill="none" stroke="black" points="1162,-613 1290,-613 "/>
<path fill="none" stroke="black" d="M1290,-613C1296,-613 1302,-619 1302,-625"/>
<polyline fill="none" stroke="black" points="1302,-625 1302,-707 "/>
<path fill="none" stroke="black" d="M1302,-707C1302,-713 1296,-719 1290,-719"/>
<polyline fill="none" stroke="black" points="1290,-719 1162,-719 "/>
<path fill="none" stroke="black" d="M1162,-719C1156,-719 1150,-713 1150,-707"/>
<polyline fill="none" stroke="black" points="1150,-707 1150,-625 "/>
<path fill="none" stroke="black" d="M1150,-625C1150,-619 1156,-613 1162,-613"/>
<text text-anchor="middle" x="1226" y="-702.4" font-family="Times Roman,serif" font-size="14.00">Introduction</text>
<polyline fill="none" stroke="black" points="1150,-693 1302,-693 "/>
<text text-anchor="start" x="1158" y="-676.4" font-family="Times Roman,serif" font-size="14.00">_id :BSON::ObjectId</text>
<text text-anchor="start" x="1158" y="-658.4" font-family="Times Roman,serif" font-size="14.00">_type :String</text>
<text text-anchor="start" x="1158" y="-640.4" font-family="Times Roman,serif" font-size="14.00">content :Object</text>
<text text-anchor="start" x="1158" y="-622.4" font-family="Times Roman,serif" font-size="14.00">title :Object</text>
</g>
</g>
</svg>
