<?xml version="1.0" encoding="UTF-8" standalone="no"?>
<!DOCTYPE svg PUBLIC "-//W3C//DTD SVG 1.1//EN"
 "http://www.w3.org/Graphics/SVG/1.1/DTD/svg11.dtd">
<!-- Generated by graphviz version 2.26.3 (20100126.1600)
 -->
<!-- Title: controllers_diagram Pages: 1 -->
<svg width="759pt" height="743pt"
 viewBox="0.00 0.00 759.00 743.00" xmlns="http://www.w3.org/2000/svg" xmlns:xlink="http://www.w3.org/1999/xlink">
<g id="graph1" class="graph" transform="scale(1 1) rotate(0) translate(4 739)">
<title>controllers_diagram</title>
<polygon fill="white" stroke="white" points="-4,5 -4,-739 756,-739 756,5 -4,5"/>
<!-- _diagram_info -->
<g id="node1" class="node"><title>_diagram_info</title>
<text text-anchor="start" x="459" y="-366.3" font-family="Times Roman,serif" font-size="13.00">Controllers diagram</text>
<text text-anchor="start" x="459" y="-349.3" font-family="Times Roman,serif" font-size="13.00">Date: Nov 05 2012 &#45; 02:34</text>
<text text-anchor="start" x="459" y="-332.3" font-family="Times Roman,serif" font-size="13.00">Migration version: 0</text>
<text text-anchor="start" x="459" y="-315.3" font-family="Times Roman,serif" font-size="13.00">Generated by RailRoady 1.0.8</text>
<text text-anchor="start" x="459" y="-298.3" font-family="Times Roman,serif" font-size="13.00">http://railroady.prestonlee.com</text>
</g>
<!-- IntroductionsController -->
<g id="node2" class="node"><title>IntroductionsController</title>
<polyline fill="none" stroke="black" points="427,-433.5 650,-433.5 "/>
<path fill="none" stroke="black" d="M650,-433.5C656,-433.5 662,-439.5 662,-445.5"/>
<polyline fill="none" stroke="black" points="662,-445.5 662,-559.5 "/>
<path fill="none" stroke="black" d="M662,-559.5C662,-565.5 656,-571.5 650,-571.5"/>
<polyline fill="none" stroke="black" points="650,-571.5 427,-571.5 "/>
<path fill="none" stroke="black" d="M427,-571.5C421,-571.5 415,-565.5 415,-559.5"/>
<polyline fill="none" stroke="black" points="415,-559.5 415,-445.5 "/>
<path fill="none" stroke="black" d="M415,-445.5C415,-439.5 421,-433.5 427,-433.5"/>
<text text-anchor="middle" x="538.5" y="-554.9" font-family="Times Roman,serif" font-size="14.00">IntroductionsController</text>
<polyline fill="none" stroke="black" points="415,-545.5 662,-545.5 "/>
<text text-anchor="start" x="423" y="-528.9" font-family="Times Roman,serif" font-size="14.00">_one_time_conditions_valid_122?</text>
<text text-anchor="start" x="423" y="-510.9" font-family="Times Roman,serif" font-size="14.00">index</text>
<text text-anchor="start" x="423" y="-492.9" font-family="Times Roman,serif" font-size="14.00">show</text>
<polyline fill="none" stroke="black" points="415,-483.5 662,-483.5 "/>
<polyline fill="none" stroke="black" points="415,-459.5 662,-459.5 "/>
<text text-anchor="start" x="423" y="-442.9" font-family="Times Roman,serif" font-size="14.00">_layout</text>
</g>
<!-- TipsCountController -->
<g id="node3" class="node"><title>TipsCountController</title>
<polyline fill="none" stroke="black" points="445,-1.5 576,-1.5 "/>
<path fill="none" stroke="black" d="M576,-1.5C582,-1.5 588,-7.5 588,-13.5"/>
<polyline fill="none" stroke="black" points="588,-13.5 588,-91.5 "/>
<path fill="none" stroke="black" d="M588,-91.5C588,-97.5 582,-103.5 576,-103.5"/>
<polyline fill="none" stroke="black" points="576,-103.5 445,-103.5 "/>
<path fill="none" stroke="black" d="M445,-103.5C439,-103.5 433,-97.5 433,-91.5"/>
<polyline fill="none" stroke="black" points="433,-91.5 433,-13.5 "/>
<path fill="none" stroke="black" d="M433,-13.5C433,-7.5 439,-1.5 445,-1.5"/>
<text text-anchor="middle" x="510.5" y="-86.9" font-family="Times Roman,serif" font-size="14.00">TipsCountController</text>
<polyline fill="none" stroke="black" points="433,-77.5 588,-77.5 "/>
<text text-anchor="start" x="441" y="-60.9" font-family="Times Roman,serif" font-size="14.00">create</text>
<polyline fill="none" stroke="black" points="433,-51.5 588,-51.5 "/>
<polyline fill="none" stroke="black" points="433,-27.5 588,-27.5 "/>
<text text-anchor="start" x="441" y="-10.9" font-family="Times Roman,serif" font-size="14.00">_layout</text>
</g>
<!-- HomeController -->
<g id="node4" class="node"><title>HomeController</title>
<polyline fill="none" stroke="black" points="445,-613.5 546,-613.5 "/>
<path fill="none" stroke="black" d="M546,-613.5C552,-613.5 558,-619.5 558,-625.5"/>
<polyline fill="none" stroke="black" points="558,-625.5 558,-703.5 "/>
<path fill="none" stroke="black" d="M558,-703.5C558,-709.5 552,-715.5 546,-715.5"/>
<polyline fill="none" stroke="black" points="546,-715.5 445,-715.5 "/>
<path fill="none" stroke="black" d="M445,-715.5C439,-715.5 433,-709.5 433,-703.5"/>
<polyline fill="none" stroke="black" points="433,-703.5 433,-625.5 "/>
<path fill="none" stroke="black" d="M433,-625.5C433,-619.5 439,-613.5 445,-613.5"/>
<text text-anchor="middle" x="495.5" y="-698.9" font-family="Times Roman,serif" font-size="14.00">HomeController</text>
<polyline fill="none" stroke="black" points="433,-689.5 558,-689.5 "/>
<text text-anchor="start" x="441" y="-672.9" font-family="Times Roman,serif" font-size="14.00">index</text>
<polyline fill="none" stroke="black" points="433,-663.5 558,-663.5 "/>
<polyline fill="none" stroke="black" points="433,-639.5 558,-639.5 "/>
<text text-anchor="start" x="441" y="-622.9" font-family="Times Roman,serif" font-size="14.00">_layout</text>
</g>
<!-- ApplicationController -->
<g id="node5" class="node"><title>ApplicationController</title>
<polyline fill="none" stroke="black" points="463,-145.5 686,-145.5 "/>
<path fill="none" stroke="black" d="M686,-145.5C692,-145.5 698,-151.5 698,-157.5"/>
<polyline fill="none" stroke="black" points="698,-157.5 698,-235.5 "/>
<path fill="none" stroke="black" d="M698,-235.5C698,-241.5 692,-247.5 686,-247.5"/>
<polyline fill="none" stroke="black" points="686,-247.5 463,-247.5 "/>
<path fill="none" stroke="black" d="M463,-247.5C457,-247.5 451,-241.5 451,-235.5"/>
<polyline fill="none" stroke="black" points="451,-235.5 451,-157.5 "/>
<path fill="none" stroke="black" d="M451,-157.5C451,-151.5 457,-145.5 463,-145.5"/>
<text text-anchor="middle" x="574.5" y="-230.9" font-family="Times Roman,serif" font-size="14.00">ApplicationController</text>
<polyline fill="none" stroke="black" points="451,-221.5 698,-221.5 "/>
<text text-anchor="start" x="459" y="-204.9" font-family="Times Roman,serif" font-size="14.00">_one_time_conditions_valid_120?</text>
<polyline fill="none" stroke="black" points="451,-195.5 698,-195.5 "/>
<polyline fill="none" stroke="black" points="451,-171.5 698,-171.5 "/>
<text text-anchor="start" x="459" y="-154.9" font-family="Times Roman,serif" font-size="14.00">_layout</text>
</g>
<!-- AnswersController -->
<g id="node6" class="node"><title>AnswersController</title>
<polyline fill="none" stroke="black" points="175,-217.5 398,-217.5 "/>
<path fill="none" stroke="black" d="M398,-217.5C404,-217.5 410,-223.5 410,-229.5"/>
<polyline fill="none" stroke="black" points="410,-229.5 410,-379.5 "/>
<path fill="none" stroke="black" d="M410,-379.5C410,-385.5 404,-391.5 398,-391.5"/>
<polyline fill="none" stroke="black" points="398,-391.5 175,-391.5 "/>
<path fill="none" stroke="black" d="M175,-391.5C169,-391.5 163,-385.5 163,-379.5"/>
<polyline fill="none" stroke="black" points="163,-379.5 163,-229.5 "/>
<path fill="none" stroke="black" d="M163,-229.5C163,-223.5 169,-217.5 175,-217.5"/>
<text text-anchor="middle" x="286.5" y="-374.9" font-family="Times Roman,serif" font-size="14.00">AnswersController</text>
<polyline fill="none" stroke="black" points="163,-365.5 410,-365.5 "/>
<text text-anchor="start" x="171" y="-348.9" font-family="Times Roman,serif" font-size="14.00">_one_time_conditions_valid_126?</text>
<text text-anchor="start" x="171" y="-330.9" font-family="Times Roman,serif" font-size="14.00">create</text>
<text text-anchor="start" x="171" y="-312.9" font-family="Times Roman,serif" font-size="14.00">index</text>
<text text-anchor="start" x="171" y="-294.9" font-family="Times Roman,serif" font-size="14.00">just_mine</text>
<text text-anchor="start" x="171" y="-276.9" font-family="Times Roman,serif" font-size="14.00">recents</text>
<polyline fill="none" stroke="black" points="163,-267.5 410,-267.5 "/>
<polyline fill="none" stroke="black" points="163,-243.5 410,-243.5 "/>
<text text-anchor="start" x="171" y="-226.9" font-family="Times Roman,serif" font-size="14.00">_layout</text>
</g>
<!-- CommentsController -->
<g id="node7" class="node"><title>CommentsController</title>
<polyline fill="none" stroke="black" points="31,-37.5 166,-37.5 "/>
<path fill="none" stroke="black" d="M166,-37.5C172,-37.5 178,-43.5 178,-49.5"/>
<polyline fill="none" stroke="black" points="178,-49.5 178,-163.5 "/>
<path fill="none" stroke="black" d="M178,-163.5C178,-169.5 172,-175.5 166,-175.5"/>
<polyline fill="none" stroke="black" points="166,-175.5 31,-175.5 "/>
<path fill="none" stroke="black" d="M31,-175.5C25,-175.5 19,-169.5 19,-163.5"/>
<polyline fill="none" stroke="black" points="19,-163.5 19,-49.5 "/>
<path fill="none" stroke="black" d="M19,-49.5C19,-43.5 25,-37.5 31,-37.5"/>
<text text-anchor="middle" x="98.5" y="-158.9" font-family="Times Roman,serif" font-size="14.00">CommentsController</text>
<polyline fill="none" stroke="black" points="19,-149.5 178,-149.5 "/>
<text text-anchor="start" x="27" y="-132.9" font-family="Times Roman,serif" font-size="14.00">create</text>
<text text-anchor="start" x="27" y="-114.9" font-family="Times Roman,serif" font-size="14.00">destroy</text>
<text text-anchor="start" x="27" y="-96.9" font-family="Times Roman,serif" font-size="14.00">index</text>
<polyline fill="none" stroke="black" points="19,-87.5 178,-87.5 "/>
<polyline fill="none" stroke="black" points="19,-63.5 178,-63.5 "/>
<text text-anchor="start" x="27" y="-46.9" font-family="Times Roman,serif" font-size="14.00">_layout</text>
</g>
<!-- QuestionsController -->
<g id="node8" class="node"><title>QuestionsController</title>
<polyline fill="none" stroke="black" points="607,-613.5 738,-613.5 "/>
<path fill="none" stroke="black" d="M738,-613.5C744,-613.5 750,-619.5 750,-625.5"/>
<polyline fill="none" stroke="black" points="750,-625.5 750,-721.5 "/>
<path fill="none" stroke="black" d="M750,-721.5C750,-727.5 744,-733.5 738,-733.5"/>
<polyline fill="none" stroke="black" points="738,-733.5 607,-733.5 "/>
<path fill="none" stroke="black" d="M607,-733.5C601,-733.5 595,-727.5 595,-721.5"/>
<polyline fill="none" stroke="black" points="595,-721.5 595,-625.5 "/>
<path fill="none" stroke="black" d="M595,-625.5C595,-619.5 601,-613.5 607,-613.5"/>
<text text-anchor="middle" x="672.5" y="-716.9" font-family="Times Roman,serif" font-size="14.00">QuestionsController</text>
<polyline fill="none" stroke="black" points="595,-707.5 750,-707.5 "/>
<text text-anchor="start" x="603" y="-690.9" font-family="Times Roman,serif" font-size="14.00">index</text>
<text text-anchor="start" x="603" y="-672.9" font-family="Times Roman,serif" font-size="14.00">show</text>
<polyline fill="none" stroke="black" points="595,-663.5 750,-663.5 "/>
<polyline fill="none" stroke="black" points="595,-639.5 750,-639.5 "/>
<text text-anchor="start" x="603" y="-622.9" font-family="Times Roman,serif" font-size="14.00">_layout</text>
</g>
<!-- UsersController -->
<g id="node9" class="node"><title>UsersController</title>
<polyline fill="none" stroke="black" points="283,-613.5 383,-613.5 "/>
<path fill="none" stroke="black" d="M383,-613.5C389,-613.5 395,-619.5 395,-625.5"/>
<polyline fill="none" stroke="black" points="395,-625.5 395,-703.5 "/>
<path fill="none" stroke="black" d="M395,-703.5C395,-709.5 389,-715.5 383,-715.5"/>
<polyline fill="none" stroke="black" points="383,-715.5 283,-715.5 "/>
<path fill="none" stroke="black" d="M283,-715.5C277,-715.5 271,-709.5 271,-703.5"/>
<polyline fill="none" stroke="black" points="271,-703.5 271,-625.5 "/>
<path fill="none" stroke="black" d="M271,-625.5C271,-619.5 277,-613.5 283,-613.5"/>
<text text-anchor="middle" x="333" y="-698.9" font-family="Times Roman,serif" font-size="14.00">UsersController</text>
<polyline fill="none" stroke="black" points="271,-689.5 395,-689.5 "/>
<text text-anchor="start" x="279" y="-672.9" font-family="Times Roman,serif" font-size="14.00">show</text>
<polyline fill="none" stroke="black" points="271,-663.5 395,-663.5 "/>
<polyline fill="none" stroke="black" points="271,-639.5 395,-639.5 "/>
<text text-anchor="start" x="279" y="-622.9" font-family="Times Roman,serif" font-size="14.00">_layout</text>
</g>
<!-- ExercisesController -->
<g id="node10" class="node"><title>ExercisesController</title>
<polyline fill="none" stroke="black" points="13,-595.5 138,-595.5 "/>
<path fill="none" stroke="black" d="M138,-595.5C144,-595.5 150,-601.5 150,-607.5"/>
<polyline fill="none" stroke="black" points="150,-607.5 150,-703.5 "/>
<path fill="none" stroke="black" d="M150,-703.5C150,-709.5 144,-715.5 138,-715.5"/>
<polyline fill="none" stroke="black" points="138,-715.5 13,-715.5 "/>
<path fill="none" stroke="black" d="M13,-715.5C7,-715.5 1,-709.5 1,-703.5"/>
<polyline fill="none" stroke="black" points="1,-703.5 1,-607.5 "/>
<path fill="none" stroke="black" d="M1,-607.5C1,-601.5 7,-595.5 13,-595.5"/>
<text text-anchor="middle" x="75.5" y="-698.9" font-family="Times Roman,serif" font-size="14.00">ExercisesController</text>
<polyline fill="none" stroke="black" points="1,-689.5 150,-689.5 "/>
<text text-anchor="start" x="9" y="-672.9" font-family="Times Roman,serif" font-size="14.00">index</text>
<text text-anchor="start" x="9" y="-654.9" font-family="Times Roman,serif" font-size="14.00">show</text>
<polyline fill="none" stroke="black" points="1,-645.5 150,-645.5 "/>
<polyline fill="none" stroke="black" points="1,-621.5 150,-621.5 "/>
<text text-anchor="start" x="9" y="-604.9" font-family="Times Roman,serif" font-size="14.00">_layout</text>
</g>
<!-- MessagesController -->
<g id="node11" class="node"><title>MessagesController</title>
<polyline fill="none" stroke="black" points="13,-433.5 140,-433.5 "/>
<path fill="none" stroke="black" d="M140,-433.5C146,-433.5 152,-439.5 152,-445.5"/>
<polyline fill="none" stroke="black" points="152,-445.5 152,-541.5 "/>
<path fill="none" stroke="black" d="M152,-541.5C152,-547.5 146,-553.5 140,-553.5"/>
<polyline fill="none" stroke="black" points="140,-553.5 13,-553.5 "/>
<path fill="none" stroke="black" d="M13,-553.5C7,-553.5 1,-547.5 1,-541.5"/>
<polyline fill="none" stroke="black" points="1,-541.5 1,-445.5 "/>
<path fill="none" stroke="black" d="M1,-445.5C1,-439.5 7,-433.5 13,-433.5"/>
<text text-anchor="middle" x="76.5" y="-536.9" font-family="Times Roman,serif" font-size="14.00">MessagesController</text>
<polyline fill="none" stroke="black" points="1,-527.5 152,-527.5 "/>
<text text-anchor="start" x="9" y="-510.9" font-family="Times Roman,serif" font-size="14.00">create</text>
<text text-anchor="start" x="9" y="-492.9" font-family="Times Roman,serif" font-size="14.00">index</text>
<polyline fill="none" stroke="black" points="1,-483.5 152,-483.5 "/>
<polyline fill="none" stroke="black" points="1,-459.5 152,-459.5 "/>
<text text-anchor="start" x="9" y="-442.9" font-family="Times Roman,serif" font-size="14.00">_layout</text>
</g>
<!-- AuthenticationsController -->
<g id="node12" class="node"><title>AuthenticationsController</title>
<polyline fill="none" stroke="black" points="193,-433.5 364,-433.5 "/>
<path fill="none" stroke="black" d="M364,-433.5C370,-433.5 376,-439.5 376,-445.5"/>
<polyline fill="none" stroke="black" points="376,-445.5 376,-559.5 "/>
<path fill="none" stroke="black" d="M376,-559.5C376,-565.5 370,-571.5 364,-571.5"/>
<polyline fill="none" stroke="black" points="364,-571.5 193,-571.5 "/>
<path fill="none" stroke="black" d="M193,-571.5C187,-571.5 181,-565.5 181,-559.5"/>
<polyline fill="none" stroke="black" points="181,-559.5 181,-445.5 "/>
<path fill="none" stroke="black" d="M181,-445.5C181,-439.5 187,-433.5 193,-433.5"/>
<text text-anchor="middle" x="278.5" y="-554.9" font-family="Times Roman,serif" font-size="14.00">AuthenticationsController</text>
<polyline fill="none" stroke="black" points="181,-545.5 376,-545.5 "/>
<text text-anchor="start" x="189" y="-528.9" font-family="Times Roman,serif" font-size="14.00">create</text>
<text text-anchor="start" x="189" y="-510.9" font-family="Times Roman,serif" font-size="14.00">destroy</text>
<text text-anchor="start" x="189" y="-492.9" font-family="Times Roman,serif" font-size="14.00">index</text>
<polyline fill="none" stroke="black" points="181,-483.5 376,-483.5 "/>
<polyline fill="none" stroke="black" points="181,-459.5 376,-459.5 "/>
<text text-anchor="start" x="189" y="-442.9" font-family="Times Roman,serif" font-size="14.00">_layout</text>
</g>
<!-- TipsController -->
<g id="node13" class="node"><title>TipsController</title>
<polyline fill="none" stroke="black" points="31,-271.5 120,-271.5 "/>
<path fill="none" stroke="black" d="M120,-271.5C126,-271.5 132,-277.5 132,-283.5"/>
<polyline fill="none" stroke="black" points="132,-283.5 132,-379.5 "/>
<path fill="none" stroke="black" d="M132,-379.5C132,-385.5 126,-391.5 120,-391.5"/>
<polyline fill="none" stroke="black" points="120,-391.5 31,-391.5 "/>
<path fill="none" stroke="black" d="M31,-391.5C25,-391.5 19,-385.5 19,-379.5"/>
<polyline fill="none" stroke="black" points="19,-379.5 19,-283.5 "/>
<path fill="none" stroke="black" d="M19,-283.5C19,-277.5 25,-271.5 31,-271.5"/>
<text text-anchor="middle" x="75.5" y="-374.9" font-family="Times Roman,serif" font-size="14.00">TipsController</text>
<polyline fill="none" stroke="black" points="19,-365.5 132,-365.5 "/>
<text text-anchor="start" x="27" y="-348.9" font-family="Times Roman,serif" font-size="14.00">index</text>
<text text-anchor="start" x="27" y="-330.9" font-family="Times Roman,serif" font-size="14.00">show</text>
<polyline fill="none" stroke="black" points="19,-321.5 132,-321.5 "/>
<polyline fill="none" stroke="black" points="19,-297.5 132,-297.5 "/>
<text text-anchor="start" x="27" y="-280.9" font-family="Times Roman,serif" font-size="14.00">_layout</text>
</g>
<!-- LastAnswersController -->
<g id="node14" class="node"><title>LastAnswersController</title>
<polyline fill="none" stroke="black" points="229,-55.5 379,-55.5 "/>
<path fill="none" stroke="black" d="M379,-55.5C385,-55.5 391,-61.5 391,-67.5"/>
<polyline fill="none" stroke="black" points="391,-67.5 391,-163.5 "/>
<path fill="none" stroke="black" d="M391,-163.5C391,-169.5 385,-175.5 379,-175.5"/>
<polyline fill="none" stroke="black" points="379,-175.5 229,-175.5 "/>
<path fill="none" stroke="black" d="M229,-175.5C223,-175.5 217,-169.5 217,-163.5"/>
<polyline fill="none" stroke="black" points="217,-163.5 217,-67.5 "/>
<path fill="none" stroke="black" d="M217,-67.5C217,-61.5 223,-55.5 229,-55.5"/>
<text text-anchor="middle" x="304" y="-158.9" font-family="Times Roman,serif" font-size="14.00">LastAnswersController</text>
<polyline fill="none" stroke="black" points="217,-149.5 391,-149.5 "/>
<text text-anchor="start" x="225" y="-132.9" font-family="Times Roman,serif" font-size="14.00">create</text>
<text text-anchor="start" x="225" y="-114.9" font-family="Times Roman,serif" font-size="14.00">destroy</text>
<polyline fill="none" stroke="black" points="217,-105.5 391,-105.5 "/>
<polyline fill="none" stroke="black" points="217,-81.5 391,-81.5 "/>
<text text-anchor="start" x="225" y="-64.9" font-family="Times Roman,serif" font-size="14.00">_layout</text>
</g>
</g>
</svg>
