<?xml version="1.0" encoding="UTF-8" standalone="no"?>
<!DOCTYPE svg PUBLIC "-//W3C//DTD SVG 1.1//EN"
 "http://www.w3.org/Graphics/SVG/1.1/DTD/svg11.dtd">
<!-- Generated by graphviz version 2.26.3 (20100126.1600)
 -->
<!-- Title: models_diagram Pages: 1 -->
<svg width="1307pt" height="1034pt"
 viewBox="0.00 0.00 1307.00 1034.00" xmlns="http://www.w3.org/2000/svg" xmlns:xlink="http://www.w3.org/1999/xlink">
<g id="graph1" class="graph" transform="scale(1 1) rotate(0) translate(4 1030)">
<title>models_diagram</title>
<polygon fill="white" stroke="white" points="-4,5 -4,-1030 1304,-1030 1304,5 -4,5"/>
<!-- _diagram_info -->
<g id="node1" class="node"><title>_diagram_info</title>
<text text-anchor="start" x="257" y="-948.8" font-family="Times Roman,serif" font-size="13.00">Models diagram</text>
<text text-anchor="start" x="257" y="-931.8" font-family="Times Roman,serif" font-size="13.00">Date: Nov 05 2012 &#45; 02:34</text>
<text text-anchor="start" x="257" y="-914.8" font-family="Times Roman,serif" font-size="13.00">Migration version: 0</text>
<text text-anchor="start" x="257" y="-897.8" font-family="Times Roman,serif" font-size="13.00">Generated by RailRoady 1.0.8</text>
<text text-anchor="start" x="257" y="-880.8" font-family="Times Roman,serif" font-size="13.00">http://railroady.prestonlee.com</text>
</g>
<!-- User -->
<g id="node2" class="node"><title>User</title>
<polyline fill="none" stroke="black" points="171,-505 373,-505 "/>
<path fill="none" stroke="black" d="M373,-505C379,-505 385,-511 385,-517"/>
<polyline fill="none" stroke="black" points="385,-517 385,-761 "/>
<path fill="none" stroke="black" d="M385,-761C385,-767 379,-773 373,-773"/>
<polyline fill="none" stroke="black" points="373,-773 171,-773 "/>
<path fill="none" stroke="black" d="M171,-773C165,-773 159,-767 159,-761"/>
<polyline fill="none" stroke="black" points="159,-761 159,-517 "/>
<path fill="none" stroke="black" d="M159,-517C159,-511 165,-505 171,-505"/>
<text text-anchor="middle" x="272" y="-756.4" font-family="Times Roman,serif" font-size="14.00">User</text>
<polyline fill="none" stroke="black" points="159,-747 385,-747 "/>
<text text-anchor="start" x="167" y="-730.4" font-family="Times Roman,serif" font-size="14.00">_id :BSON::ObjectId</text>
<text text-anchor="start" x="167" y="-712.4" font-family="Times Roman,serif" font-size="14.00">_type :String</text>
<text text-anchor="start" x="167" y="-694.4" font-family="Times Roman,serif" font-size="14.00">current_sign_in_at :Time</text>
<text text-anchor="start" x="167" y="-676.4" font-family="Times Roman,serif" font-size="14.00">current_sign_in_ip :String</text>
<text text-anchor="start" x="167" y="-658.4" font-family="Times Roman,serif" font-size="14.00">email :String</text>
<text text-anchor="start" x="167" y="-640.4" font-family="Times Roman,serif" font-size="14.00">encrypted_password :String</text>
<text text-anchor="start" x="167" y="-622.4" font-family="Times Roman,serif" font-size="14.00">last_sign_in_at :Time</text>
<text text-anchor="start" x="167" y="-604.4" font-family="Times Roman,serif" font-size="14.00">last_sign_in_ip :String</text>
<text text-anchor="start" x="167" y="-586.4" font-family="Times Roman,serif" font-size="14.00">name :String</text>
<text text-anchor="start" x="167" y="-568.4" font-family="Times Roman,serif" font-size="14.00">remember_created_at :Time</text>
<text text-anchor="start" x="167" y="-550.4" font-family="Times Roman,serif" font-size="14.00">reset_password_sent_at :Time</text>
<text text-anchor="start" x="167" y="-532.4" font-family="Times Roman,serif" font-size="14.00">reset_password_token :String</text>
<text text-anchor="start" x="167" y="-514.4" font-family="Times Roman,serif" font-size="14.00">sign_in_count :Integer</text>
</g>
<!-- LastAnswer -->
<g id="node3" class="node"><title>LastAnswer</title>
<polyline fill="none" stroke="black" points="354,-28 482,-28 "/>
<path fill="none" stroke="black" d="M482,-28C488,-28 494,-34 494,-40"/>
<polyline fill="none" stroke="black" points="494,-40 494,-140 "/>
<path fill="none" stroke="black" d="M494,-140C494,-146 488,-152 482,-152"/>
<polyline fill="none" stroke="black" points="482,-152 354,-152 "/>
<path fill="none" stroke="black" d="M354,-152C348,-152 342,-146 342,-140"/>
<polyline fill="none" stroke="black" points="342,-140 342,-40 "/>
<path fill="none" stroke="black" d="M342,-40C342,-34 348,-28 354,-28"/>
<text text-anchor="middle" x="418" y="-135.4" font-family="Times Roman,serif" font-size="14.00">LastAnswer</text>
<polyline fill="none" stroke="black" points="342,-126 494,-126 "/>
<text text-anchor="start" x="350" y="-109.4" font-family="Times Roman,serif" font-size="14.00">_id :BSON::ObjectId</text>
<text text-anchor="start" x="350" y="-91.4" font-family="Times Roman,serif" font-size="14.00">_type :String</text>
<text text-anchor="start" x="350" y="-73.4" font-family="Times Roman,serif" font-size="14.00">answer_id :Object</text>
<text text-anchor="start" x="350" y="-55.4" font-family="Times Roman,serif" font-size="14.00">question_id :Object</text>
<text text-anchor="start" x="350" y="-37.4" font-family="Times Roman,serif" font-size="14.00">user_id :Object</text>
</g>
<!-- User&#45;&gt;LastAnswer -->
<g id="edge8" class="edge"><title>User&#45;&gt;LastAnswer</title>
<path fill="none" stroke="#aba95d" d="M326.751,-497.088C329.759,-487.311 332.548,-477.551 335,-468 363.168,-358.292 345.379,-325.847 373,-216 377.493,-198.133 383.521,-179.243 389.702,-161.679"/>
<ellipse fill="none" stroke="#aba95d" cx="325.491" cy="-501.112" rx="4.00001" ry="4.00001"/>
<polygon fill="#aba95d" stroke="#aba95d" points="389.771,-161.486 397.379,-153.589 391.457,-156.779 393.143,-152.072 393.143,-152.072 393.143,-152.072 391.457,-156.779 388.906,-150.555 389.771,-161.486 389.771,-161.486"/>
</g>
<!-- Answer -->
<g id="node9" class="node"><title>Answer</title>
<polyline fill="none" stroke="black" points="181.5,-217 314.5,-217 "/>
<path fill="none" stroke="black" d="M314.5,-217C320.5,-217 326.5,-223 326.5,-229"/>
<polyline fill="none" stroke="black" points="326.5,-229 326.5,-455 "/>
<path fill="none" stroke="black" d="M326.5,-455C326.5,-461 320.5,-467 314.5,-467"/>
<polyline fill="none" stroke="black" points="314.5,-467 181.5,-467 "/>
<path fill="none" stroke="black" d="M181.5,-467C175.5,-467 169.5,-461 169.5,-455"/>
<polyline fill="none" stroke="black" points="169.5,-455 169.5,-229 "/>
<path fill="none" stroke="black" d="M169.5,-229C169.5,-223 175.5,-217 181.5,-217"/>
<text text-anchor="middle" x="248" y="-450.4" font-family="Times Roman,serif" font-size="14.00">Answer</text>
<polyline fill="none" stroke="black" points="169.5,-441 326.5,-441 "/>
<text text-anchor="start" x="177.5" y="-424.4" font-family="Times Roman,serif" font-size="14.00">_id :BSON::ObjectId</text>
<text text-anchor="start" x="177.5" y="-406.4" font-family="Times Roman,serif" font-size="14.00">_type :String</text>
<text text-anchor="start" x="177.5" y="-388.4" font-family="Times Roman,serif" font-size="14.00">correct :Boolean</text>
<text text-anchor="start" x="177.5" y="-370.4" font-family="Times Roman,serif" font-size="14.00">created_at :Time</text>
<text text-anchor="start" x="177.5" y="-352.4" font-family="Times Roman,serif" font-size="14.00">exercise_id :Object</text>
<text text-anchor="start" x="177.5" y="-334.4" font-family="Times Roman,serif" font-size="14.00">question_id :Object</text>
<text text-anchor="start" x="177.5" y="-316.4" font-family="Times Roman,serif" font-size="14.00">response :Object</text>
<text text-anchor="start" x="177.5" y="-298.4" font-family="Times Roman,serif" font-size="14.00">tip :Object</text>
<text text-anchor="start" x="177.5" y="-280.4" font-family="Times Roman,serif" font-size="14.00">try_number :Integer</text>
<text text-anchor="start" x="177.5" y="-262.4" font-family="Times Roman,serif" font-size="14.00">updated_at :Time</text>
<text text-anchor="start" x="177.5" y="-244.4" font-family="Times Roman,serif" font-size="14.00">user_id :Object</text>
<text text-anchor="start" x="177.5" y="-226.4" font-family="Times Roman,serif" font-size="14.00">user_name :Object</text>
</g>
<!-- User&#45;&gt;Answer -->
<g id="edge4" class="edge"><title>User&#45;&gt;Answer</title>
<path fill="none" stroke="#1927ab" d="M260.497,-496.65C259.979,-490.244 259.46,-483.823 258.944,-477.435"/>
<ellipse fill="none" stroke="#1927ab" cx="260.836" cy="-500.85" rx="4" ry="4"/>
<polygon fill="#1927ab" stroke="#1927ab" points="258.941,-477.397 262.621,-467.067 258.538,-472.413 258.136,-467.429 258.136,-467.429 258.136,-467.429 258.538,-472.413 253.65,-467.792 258.941,-477.397 258.941,-477.397"/>
</g>
<!-- Authentication -->
<g id="node10" class="node"><title>Authentication</title>
<polyline fill="none" stroke="black" points="12,-298 140,-298 "/>
<path fill="none" stroke="black" d="M140,-298C146,-298 152,-304 152,-310"/>
<polyline fill="none" stroke="black" points="152,-310 152,-374 "/>
<path fill="none" stroke="black" d="M152,-374C152,-380 146,-386 140,-386"/>
<polyline fill="none" stroke="black" points="140,-386 12,-386 "/>
<path fill="none" stroke="black" d="M12,-386C6,-386 0,-380 0,-374"/>
<polyline fill="none" stroke="black" points="0,-374 0,-310 "/>
<path fill="none" stroke="black" d="M0,-310C0,-304 6,-298 12,-298"/>
<text text-anchor="middle" x="76" y="-369.4" font-family="Times Roman,serif" font-size="14.00">Authentication</text>
<polyline fill="none" stroke="black" points="0,-360 152,-360 "/>
<text text-anchor="start" x="8" y="-343.4" font-family="Times Roman,serif" font-size="14.00">_id :BSON::ObjectId</text>
<text text-anchor="start" x="8" y="-325.4" font-family="Times Roman,serif" font-size="14.00">_type :String</text>
<text text-anchor="start" x="8" y="-307.4" font-family="Times Roman,serif" font-size="14.00">user_id :Object</text>
</g>
<!-- User&#45;&gt;Authentication -->
<g id="edge2" class="edge"><title>User&#45;&gt;Authentication</title>
<path fill="none" stroke="#8f9dd4" d="M178.992,-498.065C154.709,-461.268 130.015,-423.849 110.897,-394.879"/>
<ellipse fill="none" stroke="#8f9dd4" cx="181.258" cy="-501.499" rx="4.00002" ry="4.00002"/>
<polygon fill="#8f9dd4" stroke="#8f9dd4" points="110.657,-394.516 108.905,-383.691 107.903,-390.343 105.149,-386.169 105.149,-386.169 105.149,-386.169 107.903,-390.343 101.393,-388.648 110.657,-394.516 110.657,-394.516"/>
</g>
<!-- TipsCount -->
<g id="node13" class="node"><title>TipsCount</title>
<polyline fill="none" stroke="black" points="394,-280 522,-280 "/>
<path fill="none" stroke="black" d="M522,-280C528,-280 534,-286 534,-292"/>
<polyline fill="none" stroke="black" points="534,-292 534,-392 "/>
<path fill="none" stroke="black" d="M534,-392C534,-398 528,-404 522,-404"/>
<polyline fill="none" stroke="black" points="522,-404 394,-404 "/>
<path fill="none" stroke="black" d="M394,-404C388,-404 382,-398 382,-392"/>
<polyline fill="none" stroke="black" points="382,-392 382,-292 "/>
<path fill="none" stroke="black" d="M382,-292C382,-286 388,-280 394,-280"/>
<text text-anchor="middle" x="458" y="-387.4" font-family="Times Roman,serif" font-size="14.00">TipsCount</text>
<polyline fill="none" stroke="black" points="382,-378 534,-378 "/>
<text text-anchor="start" x="390" y="-361.4" font-family="Times Roman,serif" font-size="14.00">_id :BSON::ObjectId</text>
<text text-anchor="start" x="390" y="-343.4" font-family="Times Roman,serif" font-size="14.00">_type :String</text>
<text text-anchor="start" x="390" y="-325.4" font-family="Times Roman,serif" font-size="14.00">question_id :Object</text>
<text text-anchor="start" x="390" y="-307.4" font-family="Times Roman,serif" font-size="14.00">tries :Integer</text>
<text text-anchor="start" x="390" y="-289.4" font-family="Times Roman,serif" font-size="14.00">user_id :Object</text>
</g>
<!-- User&#45;&gt;TipsCount -->
<g id="edge6" class="edge"><title>User&#45;&gt;TipsCount</title>
<path fill="none" stroke="#f76269" d="M360.402,-497.843C378.869,-468.354 397.58,-438.477 413.61,-412.881"/>
<ellipse fill="none" stroke="#f76269" cx="358.144" cy="-501.447" rx="4.00002" ry="4.00002"/>
<polygon fill="#f76269" stroke="#f76269" points="413.632,-412.846 422.753,-406.76 416.285,-408.609 418.939,-404.371 418.939,-404.371 418.939,-404.371 416.285,-408.609 415.125,-401.983 413.632,-412.846 413.632,-412.846"/>
</g>
<!-- Comment -->
<g id="node4" class="node"><title>Comment</title>
<polyline fill="none" stroke="black" points="184,-1 312,-1 "/>
<path fill="none" stroke="black" d="M312,-1C318,-1 324,-7 324,-13"/>
<polyline fill="none" stroke="black" points="324,-13 324,-167 "/>
<path fill="none" stroke="black" d="M324,-167C324,-173 318,-179 312,-179"/>
<polyline fill="none" stroke="black" points="312,-179 184,-179 "/>
<path fill="none" stroke="black" d="M184,-179C178,-179 172,-173 172,-167"/>
<polyline fill="none" stroke="black" points="172,-167 172,-13 "/>
<path fill="none" stroke="black" d="M172,-13C172,-7 178,-1 184,-1"/>
<text text-anchor="middle" x="248" y="-162.4" font-family="Times Roman,serif" font-size="14.00">Comment</text>
<polyline fill="none" stroke="black" points="172,-153 324,-153 "/>
<text text-anchor="start" x="180" y="-136.4" font-family="Times Roman,serif" font-size="14.00">_id :BSON::ObjectId</text>
<text text-anchor="start" x="180" y="-118.4" font-family="Times Roman,serif" font-size="14.00">_type :String</text>
<text text-anchor="start" x="180" y="-100.4" font-family="Times Roman,serif" font-size="14.00">created_at :Time</text>
<text text-anchor="start" x="180" y="-82.4" font-family="Times Roman,serif" font-size="14.00">text :Object</text>
<text text-anchor="start" x="180" y="-64.4" font-family="Times Roman,serif" font-size="14.00">updated_at :Time</text>
<text text-anchor="start" x="180" y="-46.4" font-family="Times Roman,serif" font-size="14.00">user_email :Object</text>
<text text-anchor="start" x="180" y="-28.4" font-family="Times Roman,serif" font-size="14.00">user_id :Object</text>
<text text-anchor="start" x="180" y="-10.4" font-family="Times Roman,serif" font-size="14.00">user_name :Object</text>
</g>
<!-- Comment&#45;&gt;Answer -->
<g id="edge10" class="edge"><title>Comment&#45;&gt;Answer</title>
<path fill="none" stroke="#f1e0e5" d="M254.613,-189.262C254.672,-194.983 254.713,-200.782 254.733,-206.607"/>
<polygon fill="#f1e0e5" stroke="#f1e0e5" points="254.611,-189.057 258.985,-179.001 254.548,-184.057 254.485,-179.058 254.485,-179.058 254.485,-179.058 254.548,-184.057 249.986,-179.114 254.611,-189.057 254.611,-189.057"/>
<polygon fill="#f1e0e5" stroke="#f1e0e5" points="254.733,-206.738 250.25,-216.746 254.742,-211.738 254.75,-216.738 254.75,-216.738 254.75,-216.738 254.742,-211.738 259.25,-216.731 254.733,-206.738 254.733,-206.738"/>
</g>
<!-- Exercise -->
<g id="node5" class="node"><title>Exercise</title>
<polyline fill="none" stroke="black" points="488.5,-865 587.5,-865 "/>
<path fill="none" stroke="black" d="M587.5,-865C593.5,-865 599.5,-871 599.5,-877"/>
<polyline fill="none" stroke="black" points="599.5,-877 599.5,-959 "/>
<path fill="none" stroke="black" d="M599.5,-959C599.5,-965 593.5,-971 587.5,-971"/>
<polyline fill="none" stroke="black" points="587.5,-971 488.5,-971 "/>
<path fill="none" stroke="black" d="M488.5,-971C482.5,-971 476.5,-965 476.5,-959"/>
<polyline fill="none" stroke="black" points="476.5,-959 476.5,-877 "/>
<path fill="none" stroke="black" d="M476.5,-877C476.5,-871 482.5,-865 488.5,-865"/>
<text text-anchor="middle" x="538" y="-954.4" font-family="Times Roman,serif" font-size="14.00">Exercise</text>
<polyline fill="none" stroke="black" points="476.5,-945 599.5,-945 "/>
<text text-anchor="start" x="484.5" y="-928.4" font-family="Times Roman,serif" font-size="14.00">_id :String</text>
<text text-anchor="start" x="484.5" y="-910.4" font-family="Times Roman,serif" font-size="14.00">_type :String</text>
<text text-anchor="start" x="484.5" y="-892.4" font-family="Times Roman,serif" font-size="14.00">content :Object</text>
<text text-anchor="start" x="484.5" y="-874.4" font-family="Times Roman,serif" font-size="14.00">title :Object</text>
</g>
<!-- Question -->
<g id="node12" class="node"><title>Question</title>
<polyline fill="none" stroke="black" points="462,-568 614,-568 "/>
<path fill="none" stroke="black" d="M614,-568C620,-568 626,-574 626,-580"/>
<polyline fill="none" stroke="black" points="626,-580 626,-698 "/>
<path fill="none" stroke="black" d="M626,-698C626,-704 620,-710 614,-710"/>
<polyline fill="none" stroke="black" points="614,-710 462,-710 "/>
<path fill="none" stroke="black" d="M462,-710C456,-710 450,-704 450,-698"/>
<polyline fill="none" stroke="black" points="450,-698 450,-580 "/>
<path fill="none" stroke="black" d="M450,-580C450,-574 456,-568 462,-568"/>
<text text-anchor="middle" x="538" y="-693.4" font-family="Times Roman,serif" font-size="14.00">Question</text>
<polyline fill="none" stroke="black" points="450,-684 626,-684 "/>
<text text-anchor="start" x="458" y="-667.4" font-family="Times Roman,serif" font-size="14.00">_id :BSON::ObjectId</text>
<text text-anchor="start" x="458" y="-649.4" font-family="Times Roman,serif" font-size="14.00">_type :String</text>
<text text-anchor="start" x="458" y="-631.4" font-family="Times Roman,serif" font-size="14.00">content :Object</text>
<text text-anchor="start" x="458" y="-613.4" font-family="Times Roman,serif" font-size="14.00">correct_answer :Object</text>
<text text-anchor="start" x="458" y="-595.4" font-family="Times Roman,serif" font-size="14.00">exercise_id :Object</text>
<text text-anchor="start" x="458" y="-577.4" font-family="Times Roman,serif" font-size="14.00">title :Object</text>
</g>
<!-- Exercise&#45;&gt;Question -->
<g id="edge12" class="edge"><title>Exercise&#45;&gt;Question</title>
<path fill="none" stroke="#31e586" d="M538,-856.697C538,-816.581 538,-763.721 538,-720.135"/>
<ellipse fill="none" stroke="#31e586" cx="538" cy="-860.866" rx="4" ry="4"/>
<polygon fill="#31e586" stroke="#31e586" points="538,-720.129 542.5,-710.129 538,-715.129 538,-710.129 538,-710.129 538,-710.129 538,-715.129 533.5,-710.129 538,-720.129 538,-720.129"/>
</g>
<!-- Ckeditor::Asset -->
<g id="node6" class="node"><title>Ckeditor::Asset</title>
<polyline fill="none" stroke="black" points="774.5,-811 947.5,-811 "/>
<path fill="none" stroke="black" d="M947.5,-811C953.5,-811 959.5,-817 959.5,-823"/>
<polyline fill="none" stroke="black" points="959.5,-823 959.5,-1013 "/>
<path fill="none" stroke="black" d="M959.5,-1013C959.5,-1019 953.5,-1025 947.5,-1025"/>
<polyline fill="none" stroke="black" points="947.5,-1025 774.5,-1025 "/>
<path fill="none" stroke="black" d="M774.5,-1025C768.5,-1025 762.5,-1019 762.5,-1013"/>
<polyline fill="none" stroke="black" points="762.5,-1013 762.5,-823 "/>
<path fill="none" stroke="black" d="M762.5,-823C762.5,-817 768.5,-811 774.5,-811"/>
<text text-anchor="middle" x="861" y="-1008.4" font-family="Times Roman,serif" font-size="14.00">Ckeditor::Asset</text>
<polyline fill="none" stroke="black" points="762.5,-999 959.5,-999 "/>
<text text-anchor="start" x="770.5" y="-982.4" font-family="Times Roman,serif" font-size="14.00">_id :BSON::ObjectId</text>
<text text-anchor="start" x="770.5" y="-964.4" font-family="Times Roman,serif" font-size="14.00">_type :String</text>
<text text-anchor="start" x="770.5" y="-946.4" font-family="Times Roman,serif" font-size="14.00">assetable_id :Object</text>
<text text-anchor="start" x="770.5" y="-928.4" font-family="Times Roman,serif" font-size="14.00">assetable_type :String</text>
<text text-anchor="start" x="770.5" y="-910.4" font-family="Times Roman,serif" font-size="14.00">created_at :Time</text>
<text text-anchor="start" x="770.5" y="-892.4" font-family="Times Roman,serif" font-size="14.00">data_content_type :String</text>
<text text-anchor="start" x="770.5" y="-874.4" font-family="Times Roman,serif" font-size="14.00">data_file_size :Integer</text>
<text text-anchor="start" x="770.5" y="-856.4" font-family="Times Roman,serif" font-size="14.00">height :Integer</text>
<text text-anchor="start" x="770.5" y="-838.4" font-family="Times Roman,serif" font-size="14.00">updated_at :Time</text>
<text text-anchor="start" x="770.5" y="-820.4" font-family="Times Roman,serif" font-size="14.00">width :Integer</text>
</g>
<!-- Ckeditor::AttachmentFile -->
<g id="node7" class="node"><title>Ckeditor::AttachmentFile</title>
<polyline fill="none" stroke="black" points="655.5,-514 840.5,-514 "/>
<path fill="none" stroke="black" d="M840.5,-514C846.5,-514 852.5,-520 852.5,-526"/>
<polyline fill="none" stroke="black" points="852.5,-526 852.5,-752 "/>
<path fill="none" stroke="black" d="M852.5,-752C852.5,-758 846.5,-764 840.5,-764"/>
<polyline fill="none" stroke="black" points="840.5,-764 655.5,-764 "/>
<path fill="none" stroke="black" d="M655.5,-764C649.5,-764 643.5,-758 643.5,-752"/>
<polyline fill="none" stroke="black" points="643.5,-752 643.5,-526 "/>
<path fill="none" stroke="black" d="M643.5,-526C643.5,-520 649.5,-514 655.5,-514"/>
<text text-anchor="middle" x="748" y="-747.4" font-family="Times Roman,serif" font-size="14.00">Ckeditor::AttachmentFile</text>
<polyline fill="none" stroke="black" points="643.5,-738 852.5,-738 "/>
<text text-anchor="start" x="651.5" y="-721.4" font-family="Times Roman,serif" font-size="14.00">_id :BSON::ObjectId</text>
<text text-anchor="start" x="651.5" y="-703.4" font-family="Times Roman,serif" font-size="14.00">_type :String</text>
<text text-anchor="start" x="651.5" y="-685.4" font-family="Times Roman,serif" font-size="14.00">assetable_id :Object</text>
<text text-anchor="start" x="651.5" y="-667.4" font-family="Times Roman,serif" font-size="14.00">assetable_type :String</text>
<text text-anchor="start" x="651.5" y="-649.4" font-family="Times Roman,serif" font-size="14.00">created_at :Time</text>
<text text-anchor="start" x="651.5" y="-631.4" font-family="Times Roman,serif" font-size="14.00">data_content_type :String</text>
<text text-anchor="start" x="651.5" y="-613.4" font-family="Times Roman,serif" font-size="14.00">data_file_name :String</text>
<text text-anchor="start" x="651.5" y="-595.4" font-family="Times Roman,serif" font-size="14.00">data_file_size :Integer</text>
<text text-anchor="start" x="651.5" y="-577.4" font-family="Times Roman,serif" font-size="14.00">data_updated_at :DateTime</text>
<text text-anchor="start" x="651.5" y="-559.4" font-family="Times Roman,serif" font-size="14.00">height :Integer</text>
<text text-anchor="start" x="651.5" y="-541.4" font-family="Times Roman,serif" font-size="14.00">updated_at :Time</text>
<text text-anchor="start" x="651.5" y="-523.4" font-family="Times Roman,serif" font-size="14.00">width :Integer</text>
</g>
<!-- Ckeditor::Asset&#45;&gt;Ckeditor::AttachmentFile -->
<g id="edge14" class="edge"><title>Ckeditor::Asset&#45;&gt;Ckeditor::AttachmentFile</title>
<path fill="none" stroke="black" d="M817.634,-810.929C811.473,-795.716 805.09,-779.958 798.803,-764.434"/>
</g>
<!-- Ckeditor::Picture -->
<g id="node8" class="node"><title>Ckeditor::Picture</title>
<polyline fill="none" stroke="black" points="881.5,-514 1066.5,-514 "/>
<path fill="none" stroke="black" d="M1066.5,-514C1072.5,-514 1078.5,-520 1078.5,-526"/>
<polyline fill="none" stroke="black" points="1078.5,-526 1078.5,-752 "/>
<path fill="none" stroke="black" d="M1078.5,-752C1078.5,-758 1072.5,-764 1066.5,-764"/>
<polyline fill="none" stroke="black" points="1066.5,-764 881.5,-764 "/>
<path fill="none" stroke="black" d="M881.5,-764C875.5,-764 869.5,-758 869.5,-752"/>
<polyline fill="none" stroke="black" points="869.5,-752 869.5,-526 "/>
<path fill="none" stroke="black" d="M869.5,-526C869.5,-520 875.5,-514 881.5,-514"/>
<text text-anchor="middle" x="974" y="-747.4" font-family="Times Roman,serif" font-size="14.00">Ckeditor::Picture</text>
<polyline fill="none" stroke="black" points="869.5,-738 1078.5,-738 "/>
<text text-anchor="start" x="877.5" y="-721.4" font-family="Times Roman,serif" font-size="14.00">_id :BSON::ObjectId</text>
<text text-anchor="start" x="877.5" y="-703.4" font-family="Times Roman,serif" font-size="14.00">_type :String</text>
<text text-anchor="start" x="877.5" y="-685.4" font-family="Times Roman,serif" font-size="14.00">assetable_id :Object</text>
<text text-anchor="start" x="877.5" y="-667.4" font-family="Times Roman,serif" font-size="14.00">assetable_type :String</text>
<text text-anchor="start" x="877.5" y="-649.4" font-family="Times Roman,serif" font-size="14.00">created_at :Time</text>
<text text-anchor="start" x="877.5" y="-631.4" font-family="Times Roman,serif" font-size="14.00">data_content_type :String</text>
<text text-anchor="start" x="877.5" y="-613.4" font-family="Times Roman,serif" font-size="14.00">data_file_name :String</text>
<text text-anchor="start" x="877.5" y="-595.4" font-family="Times Roman,serif" font-size="14.00">data_file_size :Integer</text>
<text text-anchor="start" x="877.5" y="-577.4" font-family="Times Roman,serif" font-size="14.00">data_updated_at :DateTime</text>
<text text-anchor="start" x="877.5" y="-559.4" font-family="Times Roman,serif" font-size="14.00">height :Integer</text>
<text text-anchor="start" x="877.5" y="-541.4" font-family="Times Roman,serif" font-size="14.00">updated_at :Time</text>
<text text-anchor="start" x="877.5" y="-523.4" font-family="Times Roman,serif" font-size="14.00">width :Integer</text>
</g>
<!-- Ckeditor::Asset&#45;&gt;Ckeditor::Picture -->
<g id="edge16" class="edge"><title>Ckeditor::Asset&#45;&gt;Ckeditor::Picture</title>
<path fill="none" stroke="black" d="M904.366,-810.929C910.527,-795.716 916.91,-779.958 923.197,-764.434"/>
</g>
<!-- Answer&#45;&gt;LastAnswer -->
<g id="edge18" class="edge"><title>Answer&#45;&gt;LastAnswer</title>
<path fill="none" stroke="#06498f" d="M331.133,-218.767C344.988,-198.229 358.909,-177.593 371.423,-159.043"/>
<ellipse fill="none" stroke="#06498f" cx="328.768" cy="-222.273" rx="4.00002" ry="4.00002"/>
<ellipse fill="#06498f" stroke="#06498f" cx="373.73" cy="-155.623" rx="4.00002" ry="4.00002"/>
</g>
<!-- Answer&#45;&gt;Comment -->
<g id="edge20" class="edge"><title>Answer&#45;&gt;Comment</title>
<path fill="none" stroke="#82b3ea" d="M241.26,-208.69C241.278,-202.112 241.321,-195.56 241.389,-189.107"/>
<ellipse fill="none" stroke="#82b3ea" cx="241.255" cy="-212.738" rx="4" ry="4"/>
<polygon fill="#82b3ea" stroke="#82b3ea" points="241.389,-189.057 246.014,-179.114 241.452,-184.057 241.515,-179.058 241.515,-179.058 241.515,-179.058 241.452,-184.057 237.015,-179.001 241.389,-189.057 241.389,-189.057"/>
</g>
<!-- Tip -->
<g id="node11" class="node"><title>Tip</title>
<polyline fill="none" stroke="black" points="602,-280 766,-280 "/>
<path fill="none" stroke="black" d="M766,-280C772,-280 778,-286 778,-292"/>
<polyline fill="none" stroke="black" points="778,-292 778,-392 "/>
<path fill="none" stroke="black" d="M778,-392C778,-398 772,-404 766,-404"/>
<polyline fill="none" stroke="black" points="766,-404 602,-404 "/>
<path fill="none" stroke="black" d="M602,-404C596,-404 590,-398 590,-392"/>
<polyline fill="none" stroke="black" points="590,-392 590,-292 "/>
<path fill="none" stroke="black" d="M590,-292C590,-286 596,-280 602,-280"/>
<text text-anchor="middle" x="684" y="-387.4" font-family="Times Roman,serif" font-size="14.00">Tip</text>
<polyline fill="none" stroke="black" points="590,-378 778,-378 "/>
<text text-anchor="start" x="598" y="-361.4" font-family="Times Roman,serif" font-size="14.00">_id :BSON::ObjectId</text>
<text text-anchor="start" x="598" y="-343.4" font-family="Times Roman,serif" font-size="14.00">_type :String</text>
<text text-anchor="start" x="598" y="-325.4" font-family="Times Roman,serif" font-size="14.00">content :Object</text>
<text text-anchor="start" x="598" y="-307.4" font-family="Times Roman,serif" font-size="14.00">number_of_tries :Integer</text>
<text text-anchor="start" x="598" y="-289.4" font-family="Times Roman,serif" font-size="14.00">question_id :Object</text>
</g>
<!-- Question&#45;&gt;LastAnswer -->
<g id="edge22" class="edge"><title>Question&#45;&gt;LastAnswer</title>
<path fill="none" stroke="#5bea03" d="M556.837,-559.665C573.67,-471.97 589.245,-328.278 543,-216 533.759,-193.563 518.374,-173.007 501.501,-155.298"/>
<ellipse fill="none" stroke="#5bea03" cx="556.029" cy="-563.786" rx="4.00001" ry="4.00001"/>
<polygon fill="#5bea03" stroke="#5bea03" points="501.213,-155.006 497.396,-144.726 497.702,-151.445 494.192,-147.885 494.192,-147.885 494.192,-147.885 497.702,-151.445 490.988,-151.045 501.213,-155.006 501.213,-155.006"/>
</g>
<!-- Question&#45;&gt;Answer -->
<g id="edge24" class="edge"><title>Question&#45;&gt;Answer</title>
<path fill="none" stroke="#97e948" d="M462.708,-561.89C423.186,-521.415 374.598,-471.654 333.645,-429.712"/>
<ellipse fill="none" stroke="#97e948" cx="465.743" cy="-564.999" rx="4.00002" ry="4.00002"/>
<polygon fill="#97e948" stroke="#97e948" points="333.603,-429.67 329.837,-419.371 330.11,-426.092 326.617,-422.515 326.617,-422.515 326.617,-422.515 330.11,-426.092 323.397,-425.659 333.603,-429.67 333.603,-429.67"/>
</g>
<!-- Question&#45;&gt;Tip -->
<g id="edge26" class="edge"><title>Question&#45;&gt;Tip</title>
<path fill="none" stroke="#9df9c4" d="M576.622,-560.434C599.123,-514.661 627.271,-457.4 649.102,-412.99"/>
<ellipse fill="none" stroke="#9df9c4" cx="574.735" cy="-564.271" rx="4.00002" ry="4.00002"/>
<polygon fill="#9df9c4" stroke="#9df9c4" points="649.109,-412.977 657.559,-405.988 651.315,-408.49 653.521,-404.002 653.521,-404.002 653.521,-404.002 651.315,-408.49 649.482,-402.017 649.109,-412.977 649.109,-412.977"/>
</g>
<!-- Question&#45;&gt;TipsCount -->
<g id="edge28" class="edge"><title>Question&#45;&gt;TipsCount</title>
<path fill="none" stroke="#91259f" d="M516.756,-560.132C504.516,-514.69 489.246,-458.002 477.342,-413.806"/>
<ellipse fill="none" stroke="#91259f" cx="517.798" cy="-563.999" rx="4.00001" ry="4.00001"/>
<polygon fill="#91259f" stroke="#91259f" points="477.302,-413.658 479.046,-402.832 476.001,-408.83 474.701,-404.002 474.701,-404.002 474.701,-404.002 476.001,-408.83 470.356,-405.173 477.302,-413.658 477.302,-413.658"/>
</g>
<!-- Message -->
<g id="node14" class="node"><title>Message</title>
<polyline fill="none" stroke="black" points="989,-874 1117,-874 "/>
<path fill="none" stroke="black" d="M1117,-874C1123,-874 1129,-880 1129,-886"/>
<polyline fill="none" stroke="black" points="1129,-886 1129,-950 "/>
<path fill="none" stroke="black" d="M1129,-950C1129,-956 1123,-962 1117,-962"/>
<polyline fill="none" stroke="black" points="1117,-962 989,-962 "/>
<path fill="none" stroke="black" d="M989,-962C983,-962 977,-956 977,-950"/>
<polyline fill="none" stroke="black" points="977,-950 977,-886 "/>
<path fill="none" stroke="black" d="M977,-886C977,-880 983,-874 989,-874"/>
<text text-anchor="middle" x="1053" y="-945.4" font-family="Times Roman,serif" font-size="14.00">Message</text>
<polyline fill="none" stroke="black" points="977,-936 1129,-936 "/>
<text text-anchor="start" x="985" y="-919.4" font-family="Times Roman,serif" font-size="14.00">_id :BSON::ObjectId</text>
<text text-anchor="start" x="985" y="-901.4" font-family="Times Roman,serif" font-size="14.00">_type :String</text>
<text text-anchor="start" x="985" y="-883.4" font-family="Times Roman,serif" font-size="14.00">content :Object</text>
</g>
<!-- Introduction -->
<g id="node15" class="node"><title>Introduction</title>
<polyline fill="none" stroke="black" points="1159,-865 1287,-865 "/>
<path fill="none" stroke="black" d="M1287,-865C1293,-865 1299,-871 1299,-877"/>
<polyline fill="none" stroke="black" points="1299,-877 1299,-959 "/>
<path fill="none" stroke="black" d="M1299,-959C1299,-965 1293,-971 1287,-971"/>
<polyline fill="none" stroke="black" points="1287,-971 1159,-971 "/>
<path fill="none" stroke="black" d="M1159,-971C1153,-971 1147,-965 1147,-959"/>
<polyline fill="none" stroke="black" points="1147,-959 1147,-877 "/>
<path fill="none" stroke="black" d="M1147,-877C1147,-871 1153,-865 1159,-865"/>
<text text-anchor="middle" x="1223" y="-954.4" font-family="Times Roman,serif" font-size="14.00">Introduction</text>
<polyline fill="none" stroke="black" points="1147,-945 1299,-945 "/>
<text text-anchor="start" x="1155" y="-928.4" font-family="Times Roman,serif" font-size="14.00">_id :BSON::ObjectId</text>
<text text-anchor="start" x="1155" y="-910.4" font-family="Times Roman,serif" font-size="14.00">_type :String</text>
<text text-anchor="start" x="1155" y="-892.4" font-family="Times Roman,serif" font-size="14.00">content :Object</text>
<text text-anchor="start" x="1155" y="-874.4" font-family="Times Roman,serif" font-size="14.00">title :Object</text>
</g>
</g>
</svg>
