<?xml version="1.0" encoding="UTF-8" standalone="no"?>
<!DOCTYPE svg PUBLIC "-//W3C//DTD SVG 1.1//EN"
 "http://www.w3.org/Graphics/SVG/1.1/DTD/svg11.dtd">
<!-- Generated by graphviz version 2.26.3 (20100126.1600)
 -->
<!-- Title: models_diagram Pages: 1 -->
<svg width="1151pt" height="324pt"
 viewBox="0.00 0.00 1151.00 324.00" xmlns="http://www.w3.org/2000/svg" xmlns:xlink="http://www.w3.org/1999/xlink">
<g id="graph1" class="graph" transform="scale(1 1) rotate(0) translate(4 320)">
<title>models_diagram</title>
<polygon fill="white" stroke="white" points="-4,5 -4,-320 1148,-320 1148,5 -4,5"/>
<!-- _diagram_info -->
<g id="node1" class="node"><title>_diagram_info</title>
<text text-anchor="start" x="174" y="-299.8" font-family="Times Roman,serif" font-size="13.00">Models diagram</text>
<text text-anchor="start" x="174" y="-282.8" font-family="Times Roman,serif" font-size="13.00">Date: Nov 05 2012 &#45; 02:34</text>
<text text-anchor="start" x="174" y="-265.8" font-family="Times Roman,serif" font-size="13.00">Migration version: 0</text>
<text text-anchor="start" x="174" y="-248.8" font-family="Times Roman,serif" font-size="13.00">Generated by RailRoady 1.0.8</text>
<text text-anchor="start" x="174" y="-231.8" font-family="Times Roman,serif" font-size="13.00">http://railroady.prestonlee.com</text>
</g>
<!-- User -->
<g id="node2" class="node"><title>User</title>
<ellipse fill="none" stroke="black" cx="264" cy="-167" rx="33.9411" ry="18.3848"/>
<text text-anchor="middle" x="264" y="-163.4" font-family="Times Roman,serif" font-size="14.00">User</text>
</g>
<!-- LastAnswer -->
<g id="node3" class="node"><title>LastAnswer</title>
<ellipse fill="none" stroke="black" cx="380" cy="-19" rx="68.7979" ry="18.3848"/>
<text text-anchor="middle" x="380" y="-15.4" font-family="Times Roman,serif" font-size="14.00">LastAnswer</text>
</g>
<!-- User&#45;&gt;LastAnswer -->
<g id="edge8" class="edge"><title>User&#45;&gt;LastAnswer</title>
<path fill="none" stroke="#e6c946" d="M280.394,-142.821C293.569,-123.748 312.813,-96.6729 331,-74 338.86,-64.2012 347.902,-53.8246 356.062,-44.7563"/>
<ellipse fill="none" stroke="#e6c946" cx="278.094" cy="-146.167" rx="4.00002" ry="4.00002"/>
<polygon fill="#e6c946" stroke="#e6c946" points="356.229,-44.5724 366.285,-40.1976 359.592,-40.8719 362.954,-37.1713 362.954,-37.1713 362.954,-37.1713 359.592,-40.8719 359.624,-34.1451 356.229,-44.5724 356.229,-44.5724"/>
</g>
<!-- Answer -->
<g id="node9" class="node"><title>Answer</title>
<ellipse fill="none" stroke="black" cx="235" cy="-93" rx="48.7904" ry="18.3848"/>
<text text-anchor="middle" x="235" y="-89.4" font-family="Times Roman,serif" font-size="14.00">Answer</text>
</g>
<!-- User&#45;&gt;Answer -->
<g id="edge4" class="edge"><title>User&#45;&gt;Answer</title>
<path fill="none" stroke="#f522f5" d="M253.864,-141.136C251.277,-134.534 248.485,-127.41 245.863,-120.72"/>
<ellipse fill="none" stroke="#f522f5" cx="255.372" cy="-144.984" rx="4.00001" ry="4.00001"/>
<polygon fill="#f522f5" stroke="#f522f5" points="245.835,-120.649 246.376,-109.696 244.011,-115.993 242.187,-111.338 242.187,-111.338 242.187,-111.338 244.011,-115.993 237.997,-112.98 245.835,-120.649 245.835,-120.649"/>
</g>
<!-- Authentication -->
<g id="node10" class="node"><title>Authentication</title>
<ellipse fill="none" stroke="black" cx="84" cy="-93" rx="84.1457" ry="18.3848"/>
<text text-anchor="middle" x="84" y="-89.4" font-family="Times Roman,serif" font-size="14.00">Authentication</text>
</g>
<!-- User&#45;&gt;Authentication -->
<g id="edge2" class="edge"><title>User&#45;&gt;Authentication</title>
<path fill="none" stroke="#4fa2c0" d="M228.926,-152.581C201.756,-141.411 163.771,-125.795 133.506,-113.352"/>
<ellipse fill="none" stroke="#4fa2c0" cx="232.962" cy="-154.24" rx="4.00001" ry="4.00001"/>
<polygon fill="#4fa2c0" stroke="#4fa2c0" points="133.223,-113.236 125.685,-105.272 128.598,-111.335 123.974,-109.434 123.974,-109.434 123.974,-109.434 128.598,-111.335 122.263,-113.596 133.223,-113.236 133.223,-113.236"/>
</g>
<!-- TipsCount -->
<g id="node13" class="node"><title>TipsCount</title>
<ellipse fill="none" stroke="black" cx="401" cy="-93" rx="60.8112" ry="18.3848"/>
<text text-anchor="middle" x="401" y="-89.4" font-family="Times Roman,serif" font-size="14.00">TipsCount</text>
</g>
<!-- User&#45;&gt;TipsCount -->
<g id="edge6" class="edge"><title>User&#45;&gt;TipsCount</title>
<path fill="none" stroke="#083123" d="M295.244,-150.124C314.996,-139.454 340.688,-125.577 361.803,-114.172"/>
<ellipse fill="none" stroke="#083123" cx="291.697" cy="-152.04" rx="4.00002" ry="4.00002"/>
<polygon fill="#083123" stroke="#083123" points="362.044,-114.042 372.981,-113.249 366.443,-111.666 370.842,-109.29 370.842,-109.29 370.842,-109.29 366.443,-111.666 368.703,-105.33 362.044,-114.042 362.044,-114.042"/>
</g>
<!-- Comment -->
<g id="node4" class="node"><title>Comment</title>
<ellipse fill="none" stroke="black" cx="235" cy="-19" rx="58.1882" ry="18.3848"/>
<text text-anchor="middle" x="235" y="-15.4" font-family="Times Roman,serif" font-size="14.00">Comment</text>
</g>
<!-- Comment&#45;&gt;Answer -->
<g id="edge10" class="edge"><title>Comment&#45;&gt;Answer</title>
<path fill="none" stroke="#7981cd" d="M241.589,-47.4886C241.8,-52.9687 241.804,-58.712 241.6,-64.2018"/>
<polygon fill="#7981cd" stroke="#7981cd" points="241.582,-47.3895 245.418,-37.1163 241.255,-42.4003 240.927,-37.411 240.927,-37.411 240.927,-37.411 241.255,-42.4003 236.437,-37.7058 241.582,-47.3895 241.582,-47.3895"/>
<polygon fill="#7981cd" stroke="#7981cd" points="241.591,-64.3471 236.462,-74.0392 241.272,-69.3369 240.952,-74.3267 240.952,-74.3267 240.952,-74.3267 241.272,-69.3369 245.443,-74.6141 241.591,-64.3471 241.591,-64.3471"/>
</g>
<!-- Exercise -->
<g id="node5" class="node"><title>Exercise</title>
<ellipse fill="none" stroke="black" cx="445" cy="-269" rx="51.1176" ry="18.3848"/>
<text text-anchor="middle" x="445" y="-265.4" font-family="Times Roman,serif" font-size="14.00">Exercise</text>
</g>
<!-- Question -->
<g id="node12" class="node"><title>Question</title>
<ellipse fill="none" stroke="black" cx="445" cy="-167" rx="55.8614" ry="18.3848"/>
<text text-anchor="middle" x="445" y="-163.4" font-family="Times Roman,serif" font-size="14.00">Question</text>
</g>
<!-- Exercise&#45;&gt;Question -->
<g id="edge12" class="edge"><title>Exercise&#45;&gt;Question</title>
<path fill="none" stroke="#2b4449" d="M445,-242.015C445,-227.835 445,-210.445 445,-195.98"/>
<ellipse fill="none" stroke="#2b4449" cx="445" cy="-246.292" rx="4" ry="4"/>
<polygon fill="#2b4449" stroke="#2b4449" points="445,-195.59 449.5,-185.59 445,-190.59 445,-185.59 445,-185.59 445,-185.59 445,-190.59 440.5,-185.59 445,-195.59 445,-195.59"/>
</g>
<!-- Ckeditor::Asset -->
<g id="node6" class="node"><title>Ckeditor::Asset</title>
<ellipse fill="none" stroke="black" cx="774" cy="-269" rx="85.0596" ry="18.3848"/>
<text text-anchor="middle" x="774" y="-265.4" font-family="Times Roman,serif" font-size="14.00">Ckeditor::Asset</text>
</g>
<!-- Ckeditor::AttachmentFile -->
<g id="node7" class="node"><title>Ckeditor::AttachmentFile</title>
<ellipse fill="none" stroke="black" cx="652" cy="-167" rx="132.936" ry="18.3848"/>
<text text-anchor="middle" x="652" y="-163.4" font-family="Times Roman,serif" font-size="14.00">Ckeditor::AttachmentFile</text>
</g>
<!-- Ckeditor::Asset&#45;&gt;Ckeditor::AttachmentFile -->
<g id="edge14" class="edge"><title>Ckeditor::Asset&#45;&gt;Ckeditor::AttachmentFile</title>
<path fill="none" stroke="black" d="M752.47,-250.999C730.443,-232.583 696.384,-204.108 674.139,-185.509"/>
</g>
<!-- Ckeditor::Picture -->
<g id="node8" class="node"><title>Ckeditor::Picture</title>
<ellipse fill="none" stroke="black" cx="896" cy="-167" rx="92.839" ry="18.3848"/>
<text text-anchor="middle" x="896" y="-163.4" font-family="Times Roman,serif" font-size="14.00">Ckeditor::Picture</text>
</g>
<!-- Ckeditor::Asset&#45;&gt;Ckeditor::Picture -->
<g id="edge16" class="edge"><title>Ckeditor::Asset&#45;&gt;Ckeditor::Picture</title>
<path fill="none" stroke="black" d="M795.53,-250.999C817.694,-232.469 852.04,-203.754 874.275,-185.164"/>
</g>
<!-- Answer&#45;&gt;LastAnswer -->
<g id="edge18" class="edge"><title>Answer&#45;&gt;LastAnswer</title>
<path fill="none" stroke="#31f0d6" d="M271.692,-74.2745C292.633,-63.5874 318.896,-50.1841 340.316,-39.2527"/>
<ellipse fill="none" stroke="#31f0d6" cx="267.906" cy="-76.2067" rx="4.00002" ry="4.00002"/>
<ellipse fill="#31f0d6" stroke="#31f0d6" cx="344.111" cy="-37.316" rx="4.00002" ry="4.00002"/>
</g>
<!-- Answer&#45;&gt;Comment -->
<g id="edge20" class="edge"><title>Answer&#45;&gt;Comment</title>
<path fill="none" stroke="#f902a2" d="M228.485,-66.2453C228.204,-60.2652 228.175,-53.8974 228.398,-47.8372"/>
<ellipse fill="none" stroke="#f902a2" cx="228.77" cy="-70.3363" rx="4" ry="4"/>
<polygon fill="#f902a2" stroke="#f902a2" points="228.427,-47.3901 233.563,-37.7016 228.75,-42.4006 229.073,-37.411 229.073,-37.411 229.073,-37.411 228.75,-42.4006 224.582,-37.1204 228.427,-47.3901 228.427,-47.3901"/>
</g>
<!-- Tip -->
<g id="node11" class="node"><title>Tip</title>
<ellipse fill="none" stroke="black" cx="545" cy="-93" rx="27" ry="18.3848"/>
<text text-anchor="middle" x="545" y="-89.4" font-family="Times Roman,serif" font-size="14.00">Tip</text>
</g>
<!-- Question&#45;&gt;LastAnswer -->
<g id="edge22" class="edge"><title>Question&#45;&gt;LastAnswer</title>
<path fill="none" stroke="#ebd2d6" d="M462.067,-141.821C472.958,-122.354 482.978,-95.2347 471,-74 462.206,-58.4088 447.017,-46.7378 431.54,-38.2541"/>
<ellipse fill="none" stroke="#ebd2d6" cx="459.93" cy="-145.435" rx="4.00002" ry="4.00002"/>
<polygon fill="#ebd2d6" stroke="#ebd2d6" points="431.352,-38.1584 424.482,-29.6115 426.896,-35.8901 422.441,-33.6218 422.441,-33.6218 422.441,-33.6218 426.896,-35.8901 420.399,-37.632 431.352,-38.1584 431.352,-38.1584"/>
</g>
<!-- Question&#45;&gt;Answer -->
<g id="edge24" class="edge"><title>Question&#45;&gt;Answer</title>
<path fill="none" stroke="#ae5d47" d="M398.535,-150.627C363.443,-138.261 315.531,-121.378 280.641,-109.083"/>
<ellipse fill="none" stroke="#ae5d47" cx="402.71" cy="-152.098" rx="4.00001" ry="4.00001"/>
<polygon fill="#ae5d47" stroke="#ae5d47" points="280.599,-109.068 272.663,-101.501 275.883,-107.407 271.167,-105.745 271.167,-105.745 271.167,-105.745 275.883,-107.407 269.672,-109.989 280.599,-109.068 280.599,-109.068"/>
</g>
<!-- Question&#45;&gt;Tip -->
<g id="edge26" class="edge"><title>Question&#45;&gt;Tip</title>
<path fill="none" stroke="#4bf65a" d="M474.682,-145.035C488.5,-134.81 504.811,-122.74 518.244,-112.8"/>
<ellipse fill="none" stroke="#4bf65a" cx="471.409" cy="-147.458" rx="4.00002" ry="4.00002"/>
<polygon fill="#4bf65a" stroke="#4bf65a" points="518.562,-112.564 529.277,-110.233 522.581,-109.59 526.6,-106.616 526.6,-106.616 526.6,-106.616 522.581,-109.59 523.923,-102.999 518.562,-112.564 518.562,-112.564"/>
</g>
<!-- Question&#45;&gt;TipsCount -->
<g id="edge28" class="edge"><title>Question&#45;&gt;TipsCount</title>
<path fill="none" stroke="#98f660" d="M429.967,-141.718C425.798,-134.706 421.257,-127.068 417.033,-119.964"/>
<ellipse fill="none" stroke="#98f660" cx="432.079" cy="-145.27" rx="4.00002" ry="4.00002"/>
<polygon fill="#98f660" stroke="#98f660" points="417.015,-119.934 415.772,-109.038 414.459,-115.636 411.904,-111.338 411.904,-111.338 411.904,-111.338 414.459,-115.636 408.036,-113.638 417.015,-119.934 417.015,-119.934"/>
</g>
<!-- Message -->
<g id="node14" class="node"><title>Message</title>
<ellipse fill="none" stroke="black" cx="930" cy="-269" rx="53.033" ry="18.3848"/>
<text text-anchor="middle" x="930" y="-265.4" font-family="Times Roman,serif" font-size="14.00">Message</text>
</g>
<!-- Introduction -->
<g id="node15" class="node"><title>Introduction</title>
<ellipse fill="none" stroke="black" cx="1072" cy="-269" rx="70.9184" ry="18.3848"/>
<text text-anchor="middle" x="1072" y="-265.4" font-family="Times Roman,serif" font-size="14.00">Introduction</text>
</g>
</g>
</svg>
